<svg xmlns="http://www.w3.org/2000/svg" viewBox="0 0 315 450">
<path id="region-1" d="M 132,136 L 131,136 L 130,136 L 130,135 L 129,135 L 129,134 L 128,134 L 127,134 L 127,133 L 126,133 L 126,132 L 126,131 L 126,130 L 125,130 L 124,130 L 124,129 L 123,129 L 122,129 L 121,129 L 120,129 L 120,128 L 119,128 L 119,127 L 118,127 L 117,127 L 116,127 L 116,126 L 115,126 L 115,125 L 114,125 L 114,124 L 113,124 L 113,123 L 112,123 L 112,122 L 111,122 L 111,121 L 111,120 L 110,120 L 110,119 L 109,119 L 109,118 L 108,118 L 107,118 L 106,118 L 105,118 L 105,117 L 104,117 L 103,117 L 102,117 L 102,116 L 101,116 L 100,116 L 99,116 L 99,115 L 98,115 L 98,114 L 98,113 L 97,113 L 97,112 L 97,111 L 96,111 L 95,111 L 94,112 L 94,112 L 93,112 L 92,112 L 91,113 L 91,114 L 91,114 L 90,115 L 90,115 L 89,116 L 89,117 L 89,117 L 88,118 L 88,118 L 87,119 L 87,120 L 87,120 L 86,121 L 86,121 L 85,122 L 85,123 L 85,123 L 84,124 L 84,124 L 83,125 L 83,125 L 82,126 L 82,127 L 82,127 L 81,128 L 81,128 L 80,129 L 80,130 L 80,130 L 79,131 L 79,131 L 78,131 L 77,131 L 77,130 L 76,130 L 76,129 L 75,129 L 74,129 L 74,128 L 73,129 L 73,129 L 72,129 L 71,129 L 71,128 L 70,128 L 70,127 L 69,128 L 69,129 L 69,129 L 68,129 L 67,130 L 67,130 L 66,130 L 65,130 L 65,129 L 64,129 L 64,128 L 64,127 L 64,126 L 63,126 L 63,125 L 63,124 L 62,124 L 63,123 L 63,123 L 63,122 L 63,121 L 63,120 L 63,119 L 62,119 L 62,118 L 62,117 L 62,116 L 62,115 L 61,115 L 62,114 L 63,114 L 64,114 L 64,114 L 65,113 L 65,113 L 65,112 L 65,111 L 65,110 L 66,109 L 66,109 L 66,108 L 66,107 L 66,106 L 66,105 L 66,104 L 66,103 L 65,103 L 64,103 L 64,102 L 63,102 L 63,101 L 63,100 L 63,99 L 63,98 L 62,98 L 61,98 L 60,98 L 60,97 L 60,96 L 59,96 L 59,95 L 59,94 L 58,94 L 58,93 L 58,92 L 58,91 L 58,90 L 58,89 L 58,88 L 57,88 L 57,87 L 57,86 L 58,85 L 58,86 L 59,86 L 59,87 L 59,88 L 60,88 L 61,88 L 62,88 L 62,88 L 63,87 L 63,87 L 63,86 L 64,85 L 64,85 L 64,84 L 65,83 L 65,83 L 66,82 L 66,83 L 67,83 L 67,83 L 68,82 L 69,82 L 69,83 L 70,83 L 70,84 L 71,84 L 72,84 L 73,84 L 74,84 L 75,84 L 75,84 L 76,83 L 77,83 L 77,83 L 78,82 L 78,82 L 79,81 L 79,81 L 80,80 L 80,80 L 81,79 L 82,79 L 82,79 L 82,78 L 83,77 L 83,77 L 83,76 L 83,75 L 83,74 L 83,73 L 82,73 L 82,72 L 81,72 L 81,71 L 81,70 L 81,69 L 81,68 L 82,67 L 83,67 L 83,67 L 84,66 L 84,66 L 85,65 L 85,65 L 86,64 L 86,64 L 86,63 L 87,62 L 87,62 L 87,61 L 88,60 L 88,60 L 88,59 L 88,58 L 88,57 L 89,56 L 90,56 L 91,56 L 92,56 L 92,56 L 93,55 L 93,55 L 94,54 L 95,54 L 95,54 L 95,53 L 96,52 L 97,52 L 98,52 L 99,52 L 100,52 L 101,52 L 101,53 L 102,53 L 103,53 L 103,53 L 104,52 L 105,52 L 105,52 L 106,51 L 106,51 L 106,50 L 107,49 L 107,49 L 108,48 L 108,48 L 109,47 L 110,47 L 111,47 L 112,47 L 113,47 L 113,48 L 113,49 L 114,49 L 114,50 L 115,50 L 115,51 L 116,51 L 116,52 L 117,52 L 117,53 L 118,53 L 118,54 L 119,54 L 119,55 L 120,55 L 121,55 L 121,55 L 122,54 L 123,54 L 124,54 L 124,55 L 124,56 L 124,57 L 124,58 L 124,59 L 124,60 L 124,61 L 124,62 L 124,63 L 124,64 L 124,65 L 124,66 L 124,67 L 124,68 L 124,69 L 125,69 L 126,69 L 127,69 L 128,69 L 129,69 L 130,69 L 131,69 L 132,69 L 133,69 L 134,69 L 135,69 L 136,69 L 137,69 L 138,69 L 139,69 L 139,69 L 140,68 L 141,68 L 141,68 L 142,67 L 143,67 L 143,67 L 144,66 L 145,66 L 145,66 L 146,65 L 147,65 L 147,66 L 147,66 L 146,67 L 147,67 L 147,68 L 147,68 L 146,69 L 146,70 L 146,70 L 145,70 L 144,70 L 143,71 L 143,71 L 142,72 L 142,72 L 141,73 L 141,74 L 141,74 L 140,75 L 140,76 L 140,77 L 140,77 L 139,78 L 139,79 L 139,80 L 139,81 L 139,81 L 138,82 L 138,83 L 138,84 L 138,85 L 138,85 L 137,86 L 137,87 L 137,88 L 138,88 L 138,89 L 138,90 L 138,91 L 138,91 L 137,92 L 137,93 L 137,94 L 137,94 L 136,95 L 136,96 L 137,96 L 137,97 L 137,97 L 136,98 L 136,99 L 136,100 L 136,100 L 135,100 L 134,101 L 134,101 L 133,101 L 132,101 L 131,102 L 131,102 L 130,102 L 130,101 L 129,101 L 128,101 L 127,101 L 126,101 L 125,101 L 124,101 L 123,101 L 122,102 L 122,103 L 122,104 L 122,105 L 122,106 L 122,107 L 122,108 L 122,109 L 122,110 L 123,110 L 124,110 L 124,110 L 125,109 L 125,110 L 126,110 L 127,110 L 128,110 L 129,110 L 129,111 L 129,112 L 129,112 L 128,112 L 127,113 L 127,114 L 127,115 L 127,116 L 128,116 L 129,116 L 129,117 L 130,117 L 130,117 L 131,116 L 132,116 L 132,117 L 133,117 L 133,118 L 134,118 L 134,119 L 135,119 L 135,120 L 136,120 L 137,120 L 138,120 L 139,120 L 139,121 L 139,122 L 139,122 L 138,123 L 138,124 L 138,125 L 138,126 L 138,126 L 137,127 L 137,128 L 137,128 L 136,129 L 136,129 L 135,130 L 135,131 L 135,131 L 134,132 L 134,133 L 134,134 L 134,134 L 133,135 L 133,135 L 132,136 L 132,136 Z" fill="rgb(153,153,153)" stroke="#ffffff" stroke-width="2"/>
<path id="region-2" d="M 219,118 L 218,118 L 217,118 L 216,118 L 216,117 L 215,117 L 214,117 L 213,117 L 212,117 L 211,117 L 211,116 L 210,116 L 209,116 L 208,116 L 207,116 L 207,115 L 206,115 L 205,115 L 204,115 L 203,115 L 202,115 L 202,114 L 201,114 L 200,114 L 199,114 L 198,114 L 198,113 L 197,113 L 196,113 L 195,113 L 194,113 L 193,113 L 193,112 L 192,112 L 191,112 L 190,112 L 189,112 L 189,111 L 188,111 L 187,111 L 186,111 L 185,111 L 184,111 L 183,111 L 182,111 L 181,111 L 181,110 L 180,110 L 179,110 L 179,109 L 179,108 L 179,107 L 179,106 L 179,105 L 179,104 L 179,103 L 179,102 L 179,101 L 179,100 L 179,99 L 179,98 L 179,97 L 179,96 L 179,95 L 179,94 L 179,93 L 178,93 L 177,93 L 177,92 L 176,92 L 175,92 L 174,92 L 173,92 L 172,92 L 171,92 L 170,92 L 169,92 L 168,92 L 167,92 L 166,92 L 165,92 L 164,92 L 163,92 L 162,92 L 161,92 L 160,92 L 159,92 L 158,92 L 157,93 L 157,93 L 156,94 L 156,94 L 155,95 L 155,95 L 154,96 L 154,96 L 153,96 L 152,97 L 152,97 L 151,97 L 150,98 L 150,99 L 150,99 L 149,100 L 149,101 L 149,102 L 149,103 L 149,104 L 149,105 L 149,106 L 149,106 L 148,107 L 148,107 L 147,108 L 147,108 L 146,109 L 146,109 L 145,110 L 145,111 L 145,111 L 144,112 L 144,112 L 143,113 L 143,114 L 143,114 L 142,115 L 142,116 L 142,117 L 142,117 L 141,117 L 140,117 L 139,118 L 139,118 L 138,118 L 137,118 L 136,118 L 136,117 L 135,117 L 135,116 L 134,116 L 134,115 L 133,115 L 133,114 L 132,114 L 131,114 L 130,114 L 130,113 L 131,112 L 131,112 L 131,111 L 131,110 L 131,109 L 130,109 L 130,108 L 129,108 L 128,108 L 127,108 L 126,108 L 125,108 L 124,108 L 123,108 L 123,107 L 123,106 L 123,105 L 123,104 L 124,103 L 125,103 L 126,103 L 127,103 L 128,103 L 129,103 L 129,104 L 130,104 L 131,104 L 131,104 L 132,103 L 133,103 L 134,103 L 134,103 L 135,102 L 136,102 L 136,102 L 137,101 L 138,101 L 138,101 L 139,100 L 139,100 L 139,99 L 138,99 L 138,98 L 138,97 L 139,96 L 139,96 L 139,95 L 139,94 L 139,93 L 139,92 L 140,91 L 140,91 L 140,90 L 140,89 L 140,88 L 140,87 L 139,87 L 139,86 L 139,85 L 140,84 L 140,84 L 140,83 L 140,82 L 141,81 L 141,81 L 141,80 L 141,79 L 141,78 L 142,77 L 142,77 L 142,76 L 142,75 L 143,74 L 143,74 L 144,73 L 144,73 L 145,72 L 145,72 L 146,71 L 147,71 L 147,71 L 148,70 L 148,70 L 148,69 L 149,68 L 149,68 L 149,67 L 148,67 L 148,66 L 148,65 L 148,64 L 149,63 L 150,63 L 150,63 L 151,62 L 151,62 L 151,61 L 151,60 L 151,59 L 151,58 L 151,57 L 152,56 L 153,56 L 154,56 L 155,56 L 156,56 L 157,56 L 158,56 L 159,56 L 159,56 L 160,55 L 160,55 L 161,54 L 161,54 L 162,53 L 162,54 L 163,54 L 163,55 L 164,55 L 165,55 L 166,55 L 167,55 L 167,55 L 168,54 L 169,54 L 170,54 L 170,54 L 171,53 L 172,53 L 173,53 L 174,53 L 174,53 L 175,52 L 175,53 L 176,53 L 176,54 L 177,54 L 177,55 L 178,55 L 178,56 L 178,57 L 179,57 L 179,58 L 180,58 L 180,59 L 181,59 L 181,60 L 182,60 L 182,61 L 183,61 L 183,62 L 184,62 L 185,62 L 186,62 L 187,62 L 188,62 L 189,62 L 190,62 L 190,63 L 191,63 L 192,63 L 192,63 L 193,62 L 194,62 L 194,63 L 195,63 L 196,63 L 197,63 L 198,63 L 199,63 L 200,63 L 201,63 L 202,63 L 202,64 L 203,64 L 203,65 L 203,66 L 203,67 L 204,67 L 205,67 L 205,68 L 206,68 L 207,68 L 208,68 L 208,69 L 209,69 L 210,69 L 210,70 L 211,70 L 211,71 L 212,71 L 212,72 L 212,73 L 212,74 L 213,74 L 213,75 L 213,76 L 213,77 L 213,78 L 213,79 L 214,79 L 214,80 L 214,80 L 213,81 L 213,82 L 214,82 L 215,82 L 215,83 L 215,84 L 215,85 L 216,85 L 216,86 L 216,86 L 215,87 L 215,88 L 216,88 L 217,88 L 217,89 L 217,90 L 217,91 L 217,92 L 218,92 L 219,92 L 219,93 L 220,93 L 220,94 L 220,95 L 220,96 L 220,96 L 219,97 L 219,98 L 220,98 L 220,99 L 220,100 L 220,100 L 219,101 L 219,101 L 218,101 L 217,102 L 217,103 L 217,104 L 217,105 L 217,106 L 218,106 L 218,107 L 218,108 L 218,109 L 218,110 L 219,110 L 219,111 L 219,112 L 219,113 L 219,114 L 219,115 L 219,116 L 220,116 L 220,117 L 220,117 L 219,118 L 219,118 Z" fill="rgb(153,153,153)" stroke="#ffffff" stroke-width="2"/>
<path id="region-3" d="M 241,196 L 240,196 L 239,196 L 238,196 L 237,196 L 236,196 L 235,196 L 234,196 L 233,196 L 232,196 L 231,196 L 230,196 L 229,196 L 228,196 L 227,196 L 226,196 L 225,196 L 224,196 L 223,196 L 223,195 L 223,194 L 223,193 L 223,192 L 223,191 L 223,190 L 223,189 L 223,188 L 223,187 L 223,186 L 223,185 L 223,184 L 222,184 L 221,184 L 220,184 L 219,184 L 218,184 L 217,184 L 216,184 L 215,184 L 214,184 L 213,184 L 212,184 L 211,184 L 210,184 L 209,184 L 208,184 L 208,183 L 207,183 L 206,183 L 205,183 L 204,183 L 203,183 L 202,183 L 201,183 L 200,183 L 199,184 L 199,184 L 198,185 L 198,185 L 197,186 L 197,187 L 197,187 L 196,188 L 196,188 L 195,189 L 195,190 L 195,190 L 194,190 L 193,190 L 192,190 L 191,190 L 190,190 L 189,190 L 188,190 L 187,190 L 186,190 L 185,190 L 184,190 L 183,190 L 182,190 L 181,190 L 180,190 L 179,190 L 178,190 L 177,190 L 176,190 L 175,190 L 174,190 L 173,190 L 172,190 L 171,190 L 170,191 L 170,191 L 169,191 L 168,191 L 168,190 L 167,190 L 166,190 L 165,190 L 164,190 L 164,189 L 163,189 L 162,189 L 162,188 L 161,188 L 160,188 L 159,188 L 158,188 L 157,189 L 157,189 L 156,189 L 155,190 L 155,190 L 154,190 L 153,191 L 153,191 L 152,191 L 151,191 L 151,190 L 151,189 L 151,188 L 151,187 L 151,186 L 151,185 L 151,184 L 151,183 L 151,182 L 152,181 L 153,181 L 153,181 L 154,180 L 155,180 L 156,180 L 157,180 L 158,180 L 159,180 L 160,180 L 160,180 L 160,179 L 160,178 L 160,177 L 160,176 L 160,175 L 160,174 L 160,173 L 160,172 L 160,171 L 160,170 L 160,169 L 160,168 L 160,167 L 160,166 L 160,165 L 160,164 L 160,163 L 160,162 L 160,161 L 160,160 L 160,159 L 160,158 L 160,157 L 160,156 L 160,155 L 160,154 L 160,153 L 160,152 L 160,151 L 160,150 L 160,149 L 160,148 L 160,147 L 160,146 L 160,145 L 160,144 L 160,143 L 160,142 L 160,141 L 159,141 L 158,141 L 157,141 L 156,141 L 155,141 L 154,142 L 154,142 L 153,142 L 152,142 L 151,142 L 150,142 L 149,142 L 148,142 L 147,142 L 146,142 L 145,142 L 144,142 L 143,143 L 143,143 L 142,144 L 142,145 L 142,146 L 142,147 L 142,148 L 142,149 L 142,150 L 142,151 L 142,152 L 142,153 L 142,154 L 142,155 L 143,155 L 143,156 L 143,157 L 143,158 L 143,158 L 142,158 L 142,157 L 141,157 L 140,157 L 139,157 L 139,156 L 138,156 L 137,156 L 137,155 L 136,155 L 135,155 L 135,154 L 134,154 L 133,154 L 132,154 L 132,153 L 131,153 L 130,153 L 130,152 L 129,152 L 128,152 L 127,152 L 127,151 L 126,151 L 125,151 L 125,150 L 124,150 L 123,150 L 123,149 L 122,149 L 121,149 L 121,148 L 121,147 L 122,146 L 122,146 L 122,145 L 123,144 L 124,144 L 124,144 L 125,143 L 125,143 L 126,142 L 127,142 L 127,142 L 128,141 L 128,141 L 129,140 L 129,140 L 130,139 L 130,139 L 131,138 L 132,138 L 133,138 L 133,138 L 134,137 L 134,137 L 135,136 L 135,136 L 136,135 L 136,135 L 136,134 L 136,133 L 136,132 L 137,131 L 137,131 L 137,130 L 138,129 L 138,129 L 139,128 L 139,128 L 139,127 L 140,126 L 140,126 L 140,125 L 140,124 L 140,123 L 141,122 L 141,122 L 141,121 L 142,120 L 142,120 L 142,119 L 143,118 L 143,118 L 144,117 L 144,117 L 144,116 L 144,115 L 145,114 L 145,114 L 145,113 L 146,112 L 146,112 L 147,111 L 147,111 L 148,110 L 148,110 L 149,109 L 149,109 L 150,108 L 150,108 L 150,107 L 151,106 L 151,106 L 151,105 L 151,104 L 151,103 L 151,102 L 151,101 L 152,100 L 152,100 L 153,99 L 153,99 L 154,98 L 155,98 L 155,98 L 156,97 L 156,97 L 157,96 L 157,96 L 157,95 L 158,94 L 159,94 L 160,94 L 161,94 L 162,94 L 163,94 L 164,94 L 165,94 L 166,94 L 167,94 L 168,94 L 169,94 L 170,94 L 171,94 L 172,94 L 173,94 L 174,94 L 175,94 L 176,94 L 177,94 L 177,95 L 177,96 L 177,97 L 177,98 L 177,99 L 177,100 L 177,101 L 177,102 L 177,103 L 177,104 L 177,105 L 177,106 L 177,107 L 177,108 L 177,109 L 177,110 L 177,111 L 177,112 L 178,112 L 179,112 L 180,112 L 181,112 L 181,113 L 182,113 L 183,113 L 184,113 L 185,113 L 186,113 L 187,113 L 188,113 L 189,113 L 189,114 L 190,114 L 191,114 L 192,114 L 193,114 L 193,115 L 194,115 L 195,115 L 196,115 L 197,115 L 198,115 L 198,116 L 199,116 L 200,116 L 201,116 L 202,116 L 202,117 L 203,117 L 204,117 L 205,117 L 206,117 L 207,117 L 207,118 L 208,118 L 209,118 L 210,118 L 211,118 L 212,118 L 212,119 L 213,119 L 214,119 L 215,119 L 216,119 L 216,120 L 217,120 L 218,120 L 219,120 L 219,121 L 220,121 L 220,122 L 220,123 L 220,124 L 220,125 L 220,126 L 220,127 L 220,128 L 220,129 L 220,130 L 220,131 L 220,132 L 221,132 L 221,133 L 221,134 L 221,135 L 221,136 L 221,137 L 221,138 L 221,139 L 221,140 L 222,140 L 222,141 L 222,142 L 222,143 L 223,143 L 223,144 L 223,145 L 224,145 L 224,146 L 224,147 L 224,148 L 225,148 L 226,148 L 226,149 L 226,150 L 226,151 L 227,151 L 227,152 L 228,152 L 228,153 L 229,153 L 229,154 L 229,155 L 229,156 L 230,156 L 230,157 L 230,158 L 231,158 L 231,159 L 232,159 L 232,160 L 232,161 L 233,161 L 234,161 L 234,162 L 235,162 L 235,163 L 236,163 L 236,164 L 236,165 L 236,166 L 236,167 L 237,167 L 237,168 L 238,168 L 239,168 L 239,169 L 240,169 L 241,169 L 241,170 L 241,171 L 242,171 L 242,172 L 243,172 L 243,173 L 244,173 L 245,173 L 245,174 L 246,174 L 247,174 L 247,175 L 248,175 L 248,176 L 248,177 L 248,177 L 247,178 L 247,178 L 246,179 L 246,180 L 246,181 L 246,181 L 245,182 L 245,183 L 245,184 L 245,185 L 245,186 L 245,186 L 244,187 L 244,188 L 245,188 L 245,189 L 245,190 L 245,190 L 244,191 L 244,192 L 244,192 L 243,192 L 242,193 L 242,193 L 241,194 L 241,195 L 241,196 L 241,196 Z" fill="rgb(153,153,153)" stroke="#ffffff" stroke-width="2"/>
<path id="region-4" d="M 100,223 L 99,223 L 98,223 L 97,223 L 96,223 L 95,223 L 94,223 L 94,222 L 93,222 L 93,221 L 93,220 L 92,220 L 92,219 L 91,219 L 91,218 L 90,218 L 90,217 L 89,217 L 89,216 L 88,216 L 88,215 L 88,214 L 87,214 L 87,213 L 86,213 L 86,212 L 85,212 L 85,211 L 84,211 L 83,211 L 83,210 L 82,210 L 82,209 L 81,209 L 80,209 L 79,209 L 79,208 L 78,208 L 78,207 L 78,206 L 78,205 L 77,205 L 77,204 L 77,203 L 76,203 L 75,203 L 75,202 L 74,202 L 74,201 L 73,201 L 73,200 L 72,200 L 71,200 L 71,199 L 70,199 L 71,198 L 71,198 L 71,197 L 72,196 L 73,196 L 74,196 L 74,196 L 75,195 L 76,195 L 76,195 L 77,194 L 77,194 L 77,193 L 77,192 L 77,191 L 77,190 L 76,190 L 76,189 L 75,189 L 75,188 L 74,188 L 74,187 L 73,187 L 74,186 L 74,186 L 74,185 L 75,184 L 75,184 L 75,183 L 75,182 L 74,182 L 74,181 L 75,180 L 75,180 L 76,179 L 76,179 L 76,178 L 75,178 L 75,177 L 74,177 L 74,176 L 74,175 L 73,175 L 73,174 L 72,174 L 72,173 L 73,172 L 73,172 L 74,171 L 74,171 L 74,170 L 74,169 L 73,169 L 73,168 L 72,168 L 72,167 L 72,166 L 72,165 L 72,164 L 72,163 L 71,163 L 72,162 L 72,162 L 73,161 L 73,161 L 73,160 L 73,159 L 73,158 L 73,157 L 73,156 L 72,156 L 73,155 L 73,155 L 73,154 L 73,153 L 73,152 L 73,151 L 73,150 L 73,149 L 73,148 L 74,147 L 74,147 L 75,146 L 75,146 L 75,145 L 75,144 L 76,143 L 76,143 L 76,142 L 76,141 L 77,140 L 77,140 L 77,139 L 78,138 L 78,138 L 78,137 L 79,136 L 79,136 L 79,135 L 79,134 L 80,133 L 80,133 L 81,132 L 81,132 L 81,131 L 82,130 L 82,130 L 83,129 L 83,129 L 83,128 L 84,127 L 84,127 L 85,126 L 85,126 L 85,125 L 86,124 L 86,124 L 87,123 L 87,123 L 87,122 L 88,121 L 88,121 L 89,120 L 89,120 L 89,119 L 90,118 L 90,118 L 91,117 L 91,117 L 92,116 L 92,116 L 92,115 L 93,114 L 94,114 L 94,114 L 95,113 L 96,113 L 96,114 L 96,115 L 96,116 L 97,116 L 97,117 L 98,117 L 98,118 L 99,118 L 100,118 L 101,118 L 102,118 L 102,119 L 103,119 L 104,119 L 105,119 L 105,120 L 106,120 L 107,120 L 108,120 L 108,121 L 109,121 L 109,122 L 109,123 L 110,123 L 110,124 L 111,124 L 111,125 L 112,125 L 112,126 L 113,126 L 113,127 L 114,127 L 114,128 L 115,128 L 115,129 L 116,129 L 117,129 L 118,129 L 118,130 L 119,130 L 120,130 L 120,131 L 121,131 L 122,131 L 123,131 L 124,131 L 124,132 L 124,133 L 124,134 L 124,135 L 125,135 L 126,135 L 126,136 L 127,136 L 128,136 L 128,137 L 128,138 L 128,138 L 127,139 L 127,139 L 126,140 L 126,140 L 125,141 L 125,141 L 124,141 L 123,142 L 123,142 L 122,143 L 122,143 L 121,143 L 120,144 L 120,145 L 120,146 L 120,147 L 120,147 L 119,148 L 119,149 L 119,150 L 120,150 L 120,151 L 121,151 L 122,151 L 122,152 L 123,152 L 124,152 L 125,152 L 125,153 L 126,153 L 127,153 L 127,154 L 128,154 L 129,154 L 129,155 L 130,155 L 131,155 L 132,155 L 132,156 L 133,156 L 134,156 L 134,157 L 135,157 L 136,157 L 137,157 L 137,158 L 138,158 L 139,158 L 139,159 L 140,159 L 141,159 L 141,160 L 142,160 L 143,160 L 144,160 L 145,160 L 145,160 L 145,159 L 145,158 L 145,157 L 145,156 L 144,156 L 144,155 L 144,154 L 144,153 L 144,152 L 144,151 L 144,150 L 144,149 L 144,148 L 144,147 L 144,146 L 144,145 L 145,144 L 146,144 L 147,144 L 148,144 L 149,144 L 150,144 L 151,144 L 152,144 L 152,144 L 153,143 L 154,143 L 155,143 L 156,143 L 157,143 L 158,143 L 158,144 L 158,145 L 158,146 L 158,147 L 158,148 L 158,149 L 158,150 L 158,151 L 158,152 L 158,153 L 158,154 L 158,155 L 158,156 L 158,157 L 158,158 L 158,159 L 158,160 L 158,161 L 158,162 L 158,163 L 158,164 L 158,165 L 158,166 L 158,167 L 158,168 L 158,169 L 158,170 L 158,171 L 158,172 L 158,173 L 158,174 L 158,175 L 158,176 L 158,177 L 158,178 L 158,178 L 157,178 L 156,178 L 155,178 L 154,178 L 153,179 L 153,179 L 152,179 L 151,179 L 150,180 L 150,180 L 149,181 L 149,182 L 149,183 L 149,184 L 149,185 L 149,186 L 149,187 L 149,188 L 149,189 L 149,190 L 149,191 L 149,191 L 148,191 L 147,191 L 146,191 L 145,191 L 144,192 L 144,192 L 143,192 L 142,192 L 141,193 L 141,193 L 140,193 L 140,192 L 139,193 L 139,193 L 138,193 L 137,194 L 137,194 L 136,194 L 135,194 L 134,194 L 133,195 L 133,196 L 133,196 L 132,197 L 132,198 L 132,198 L 131,199 L 131,200 L 131,200 L 130,201 L 130,201 L 129,201 L 128,201 L 128,200 L 127,200 L 126,200 L 125,200 L 125,199 L 124,199 L 123,199 L 122,199 L 122,198 L 121,198 L 120,198 L 119,199 L 119,200 L 119,201 L 119,202 L 119,202 L 118,203 L 118,204 L 118,205 L 118,206 L 118,207 L 118,208 L 118,208 L 117,209 L 117,210 L 117,211 L 117,212 L 117,213 L 117,214 L 117,215 L 117,215 L 116,215 L 115,216 L 115,216 L 114,217 L 114,217 L 113,218 L 113,218 L 112,218 L 111,219 L 111,219 L 110,219 L 109,219 L 108,220 L 108,220 L 107,220 L 106,220 L 105,220 L 104,221 L 104,221 L 103,221 L 102,222 L 102,222 L 101,222 L 100,223 L 100,223 Z" fill="rgb(153,153,153)" stroke="#ffffff" stroke-width="2"/>
<path id="region-5" d="M 161,419 L 160,419 L 159,419 L 158,419 L 157,419 L 157,418 L 156,418 L 155,419 L 155,419 L 154,419 L 153,419 L 153,418 L 152,418 L 151,418 L 151,417 L 151,416 L 151,415 L 150,415 L 150,414 L 149,414 L 149,413 L 149,412 L 148,412 L 147,412 L 146,412 L 146,411 L 145,411 L 144,412 L 144,412 L 143,412 L 143,411 L 142,411 L 142,410 L 141,411 L 141,411 L 140,411 L 139,411 L 138,411 L 138,410 L 138,409 L 137,409 L 137,408 L 137,407 L 136,407 L 135,407 L 135,406 L 134,406 L 133,406 L 133,405 L 132,406 L 132,406 L 131,406 L 130,407 L 130,407 L 129,407 L 128,407 L 127,407 L 126,407 L 126,406 L 125,406 L 124,406 L 123,406 L 122,406 L 121,406 L 120,406 L 119,406 L 119,405 L 119,404 L 119,403 L 119,402 L 119,401 L 119,400 L 119,399 L 119,398 L 118,398 L 118,397 L 118,396 L 117,396 L 117,395 L 116,395 L 115,395 L 115,394 L 114,394 L 113,394 L 112,394 L 112,393 L 111,393 L 111,392 L 110,392 L 109,392 L 108,392 L 108,391 L 107,391 L 106,391 L 106,390 L 105,390 L 104,390 L 103,391 L 103,391 L 102,391 L 101,391 L 100,391 L 99,392 L 99,392 L 98,392 L 98,391 L 97,391 L 96,391 L 95,392 L 95,392 L 94,392 L 93,392 L 92,392 L 91,392 L 90,392 L 90,391 L 89,391 L 88,391 L 88,390 L 87,390 L 86,390 L 86,389 L 85,389 L 84,389 L 84,388 L 83,388 L 83,387 L 82,387 L 81,387 L 81,386 L 80,386 L 80,385 L 79,385 L 79,384 L 79,383 L 79,382 L 79,381 L 79,380 L 78,380 L 78,379 L 78,378 L 78,377 L 78,376 L 78,375 L 79,374 L 79,374 L 79,373 L 79,372 L 79,371 L 78,371 L 77,371 L 77,370 L 76,370 L 75,370 L 74,370 L 74,369 L 73,369 L 73,368 L 73,367 L 72,367 L 71,367 L 71,366 L 70,366 L 70,365 L 70,364 L 70,363 L 69,363 L 69,362 L 69,361 L 68,361 L 68,360 L 67,360 L 67,359 L 66,359 L 65,359 L 65,358 L 65,357 L 64,357 L 63,357 L 63,356 L 63,355 L 62,355 L 62,354 L 62,353 L 61,353 L 61,352 L 60,352 L 60,351 L 59,351 L 59,350 L 59,349 L 58,349 L 58,348 L 58,347 L 57,347 L 57,346 L 56,346 L 56,345 L 56,344 L 55,344 L 55,343 L 55,342 L 55,341 L 55,340 L 55,339 L 55,338 L 54,338 L 54,337 L 54,336 L 54,335 L 54,334 L 53,334 L 52,334 L 51,334 L 51,333 L 50,334 L 50,334 L 49,334 L 48,334 L 47,334 L 46,334 L 46,333 L 46,332 L 46,331 L 45,331 L 45,330 L 45,329 L 45,328 L 45,327 L 45,326 L 44,326 L 44,325 L 44,324 L 44,323 L 44,322 L 44,321 L 44,320 L 43,320 L 43,319 L 43,318 L 44,317 L 44,317 L 45,316 L 45,316 L 45,315 L 45,314 L 45,313 L 45,312 L 45,311 L 44,311 L 44,310 L 45,309 L 45,309 L 46,308 L 46,308 L 46,307 L 45,307 L 45,306 L 44,306 L 43,306 L 42,306 L 43,305 L 43,305 L 44,304 L 45,304 L 45,304 L 45,303 L 46,302 L 47,302 L 47,302 L 48,301 L 48,301 L 49,300 L 49,300 L 49,299 L 48,299 L 48,298 L 47,298 L 46,298 L 45,298 L 45,297 L 46,296 L 46,296 L 46,295 L 46,294 L 46,293 L 45,293 L 45,292 L 45,291 L 44,291 L 44,290 L 44,289 L 43,289 L 43,288 L 44,287 L 44,287 L 45,286 L 45,286 L 45,285 L 44,285 L 44,284 L 44,283 L 44,282 L 43,282 L 44,281 L 45,281 L 45,281 L 46,280 L 46,280 L 46,279 L 45,279 L 44,279 L 44,278 L 44,277 L 43,277 L 42,277 L 42,276 L 42,275 L 42,274 L 42,273 L 42,272 L 41,272 L 42,271 L 42,271 L 43,270 L 43,270 L 43,269 L 43,268 L 42,268 L 42,267 L 42,266 L 42,265 L 41,265 L 40,265 L 39,265 L 38,265 L 37,265 L 36,265 L 36,264 L 35,264 L 34,264 L 34,263 L 35,262 L 35,262 L 35,261 L 35,260 L 36,259 L 37,259 L 38,259 L 39,259 L 40,259 L 41,259 L 41,259 L 42,258 L 43,258 L 43,258 L 44,257 L 45,257 L 45,257 L 45,256 L 46,255 L 46,255 L 46,254 L 46,253 L 46,252 L 46,251 L 46,250 L 45,250 L 45,249 L 46,248 L 46,248 L 46,247 L 46,246 L 47,245 L 47,245 L 48,244 L 48,244 L 48,243 L 48,242 L 48,241 L 49,240 L 49,240 L 49,239 L 50,238 L 50,238 L 51,237 L 51,237 L 51,236 L 51,235 L 51,234 L 52,233 L 52,233 L 52,232 L 52,231 L 52,230 L 51,230 L 50,230 L 50,229 L 49,229 L 50,228 L 51,228 L 51,228 L 52,227 L 52,227 L 52,226 L 52,225 L 53,224 L 54,224 L 54,224 L 54,223 L 54,222 L 54,221 L 54,220 L 54,219 L 55,218 L 55,218 L 56,217 L 56,217 L 57,216 L 57,216 L 57,215 L 58,214 L 58,214 L 58,213 L 59,212 L 59,212 L 60,211 L 60,211 L 61,210 L 61,210 L 62,209 L 62,209 L 63,208 L 63,208 L 64,207 L 64,207 L 65,206 L 65,206 L 65,205 L 65,204 L 65,203 L 65,202 L 65,201 L 65,200 L 65,199 L 65,198 L 64,198 L 65,197 L 65,197 L 66,196 L 66,197 L 66,198 L 67,198 L 67,199 L 68,199 L 68,200 L 69,200 L 69,201 L 70,201 L 71,201 L 71,202 L 72,202 L 72,203 L 73,203 L 73,204 L 74,204 L 74,205 L 75,205 L 76,205 L 76,206 L 76,207 L 76,208 L 76,209 L 77,209 L 77,210 L 78,210 L 79,210 L 80,210 L 80,211 L 81,211 L 82,211 L 82,212 L 83,212 L 83,213 L 84,213 L 84,214 L 85,214 L 85,215 L 86,215 L 86,216 L 86,217 L 87,217 L 87,218 L 88,218 L 88,219 L 89,219 L 89,220 L 90,220 L 90,221 L 91,221 L 91,222 L 91,223 L 92,223 L 92,224 L 93,224 L 93,225 L 94,225 L 95,225 L 96,225 L 97,225 L 98,225 L 99,225 L 100,225 L 100,225 L 101,224 L 102,224 L 102,224 L 103,223 L 104,223 L 105,223 L 105,223 L 106,222 L 107,222 L 108,222 L 108,222 L 109,221 L 110,221 L 111,221 L 112,221 L 112,221 L 113,220 L 114,220 L 114,220 L 115,219 L 115,219 L 116,218 L 116,218 L 117,217 L 118,217 L 118,217 L 118,216 L 118,215 L 119,214 L 119,214 L 119,213 L 119,212 L 119,211 L 119,210 L 119,209 L 119,208 L 120,207 L 120,207 L 120,206 L 120,205 L 120,204 L 120,203 L 120,202 L 121,201 L 121,201 L 122,200 L 122,201 L 123,201 L 124,201 L 125,201 L 125,202 L 126,202 L 127,202 L 128,202 L 128,203 L 129,203 L 130,203 L 131,203 L 131,203 L 132,202 L 132,202 L 132,201 L 133,200 L 133,200 L 133,199 L 134,198 L 134,198 L 134,197 L 135,196 L 136,196 L 137,196 L 137,196 L 138,195 L 139,195 L 139,195 L 140,194 L 140,195 L 141,195 L 142,195 L 142,195 L 143,194 L 144,194 L 144,194 L 145,193 L 146,193 L 147,193 L 148,193 L 149,193 L 150,193 L 151,193 L 152,193 L 153,193 L 153,193 L 154,192 L 155,192 L 155,192 L 156,191 L 156,191 L 157,190 L 158,190 L 159,190 L 160,190 L 161,190 L 161,191 L 162,191 L 163,191 L 163,192 L 164,192 L 165,192 L 165,193 L 166,193 L 166,193 L 167,192 L 168,192 L 168,193 L 169,193 L 170,193 L 170,193 L 171,192 L 172,192 L 173,192 L 174,192 L 175,192 L 176,192 L 177,192 L 178,192 L 179,192 L 180,192 L 181,192 L 182,192 L 183,192 L 184,192 L 185,192 L 186,192 L 187,192 L 188,192 L 189,192 L 190,192 L 191,192 L 192,192 L 193,192 L 194,192 L 195,192 L 195,192 L 196,191 L 196,191 L 197,190 L 197,190 L 198,189 L 198,189 L 198,188 L 199,187 L 199,187 L 200,186 L 200,186 L 201,185 L 202,185 L 203,185 L 204,185 L 205,185 L 206,185 L 207,185 L 208,185 L 209,185 L 210,185 L 211,185 L 212,185 L 212,186 L 213,186 L 214,186 L 215,186 L 216,186 L 217,186 L 218,186 L 219,186 L 220,186 L 221,186 L 221,187 L 221,188 L 221,189 L 221,190 L 221,191 L 221,192 L 221,193 L 221,194 L 221,195 L 221,196 L 221,197 L 221,198 L 222,198 L 223,198 L 224,198 L 225,198 L 226,198 L 227,198 L 228,198 L 229,198 L 230,198 L 231,198 L 232,198 L 233,198 L 234,198 L 235,198 L 236,198 L 237,198 L 238,198 L 239,198 L 240,198 L 240,199 L 240,200 L 240,201 L 240,202 L 241,202 L 241,203 L 241,204 L 241,205 L 241,206 L 241,207 L 242,207 L 243,207 L 243,208 L 243,209 L 243,210 L 243,211 L 243,212 L 243,213 L 243,214 L 243,215 L 243,216 L 243,217 L 244,217 L 244,218 L 244,219 L 245,219 L 245,220 L 246,220 L 246,221 L 246,222 L 246,223 L 247,223 L 247,224 L 247,225 L 248,225 L 248,226 L 249,226 L 249,227 L 249,228 L 249,229 L 249,230 L 250,230 L 251,230 L 251,231 L 251,232 L 252,232 L 252,233 L 253,233 L 253,234 L 254,234 L 254,235 L 254,236 L 254,237 L 254,238 L 254,239 L 254,240 L 255,240 L 255,241 L 255,242 L 255,243 L 255,244 L 255,245 L 255,246 L 255,247 L 256,247 L 256,248 L 256,249 L 256,250 L 256,251 L 257,251 L 257,252 L 257,253 L 258,253 L 258,254 L 258,255 L 258,255 L 257,256 L 257,257 L 257,258 L 257,259 L 258,259 L 258,260 L 258,261 L 258,261 L 257,262 L 257,262 L 256,263 L 256,264 L 256,265 L 257,265 L 257,266 L 257,267 L 257,268 L 257,269 L 257,270 L 257,271 L 257,271 L 256,272 L 256,273 L 256,274 L 256,275 L 256,276 L 256,277 L 256,278 L 256,279 L 256,280 L 256,281 L 256,281 L 255,282 L 255,282 L 254,283 L 254,283 L 253,284 L 253,285 L 253,286 L 254,286 L 254,287 L 254,288 L 254,289 L 254,290 L 254,291 L 254,291 L 253,292 L 253,293 L 253,294 L 253,295 L 253,296 L 253,297 L 253,297 L 252,298 L 252,299 L 252,300 L 252,300 L 251,301 L 251,302 L 251,302 L 250,303 L 250,304 L 250,305 L 250,306 L 250,307 L 250,308 L 250,309 L 250,310 L 250,311 L 250,311 L 249,311 L 248,311 L 247,311 L 246,311 L 245,311 L 244,311 L 243,311 L 242,311 L 241,311 L 240,311 L 239,311 L 238,311 L 237,311 L 236,311 L 235,311 L 234,311 L 233,311 L 232,311 L 231,311 L 230,311 L 229,311 L 228,311 L 227,311 L 226,311 L 225,311 L 224,311 L 223,311 L 222,311 L 221,311 L 220,311 L 219,311 L 218,311 L 217,311 L 216,311 L 215,311 L 214,311 L 213,311 L 212,311 L 211,311 L 210,311 L 209,311 L 208,311 L 207,311 L 206,311 L 205,311 L 204,311 L 203,311 L 202,311 L 201,311 L 200,311 L 199,311 L 198,311 L 197,311 L 196,311 L 195,311 L 194,311 L 193,311 L 192,311 L 191,311 L 190,311 L 189,311 L 188,311 L 187,311 L 186,311 L 185,311 L 184,311 L 183,311 L 182,311 L 181,311 L 180,311 L 179,311 L 178,311 L 177,311 L 176,311 L 175,311 L 174,311 L 173,311 L 172,311 L 171,311 L 170,311 L 169,311 L 168,311 L 167,311 L 166,311 L 165,311 L 164,311 L 163,311 L 162,311 L 161,311 L 160,311 L 159,312 L 159,312 L 158,313 L 158,314 L 158,315 L 158,316 L 158,317 L 158,318 L 158,319 L 158,320 L 158,321 L 158,322 L 158,323 L 158,324 L 158,325 L 159,325 L 160,325 L 161,325 L 161,326 L 161,327 L 161,328 L 161,329 L 161,330 L 161,331 L 161,332 L 161,333 L 161,334 L 161,335 L 161,336 L 161,337 L 161,338 L 161,339 L 161,340 L 161,341 L 161,342 L 161,343 L 161,344 L 161,345 L 161,346 L 161,347 L 161,348 L 161,349 L 161,350 L 161,351 L 161,352 L 161,353 L 161,354 L 161,355 L 161,356 L 161,357 L 161,358 L 161,359 L 161,360 L 161,361 L 161,362 L 161,363 L 161,364 L 161,365 L 161,366 L 161,367 L 161,368 L 161,369 L 161,370 L 161,371 L 161,372 L 161,373 L 161,374 L 161,375 L 161,376 L 161,377 L 161,378 L 161,379 L 161,380 L 161,381 L 161,382 L 161,383 L 161,384 L 161,385 L 161,386 L 161,387 L 161,388 L 161,389 L 161,390 L 161,391 L 161,392 L 161,393 L 161,394 L 161,395 L 161,396 L 161,397 L 161,398 L 161,399 L 161,400 L 161,401 L 161,402 L 161,403 L 161,404 L 161,405 L 161,406 L 161,407 L 161,408 L 161,409 L 161,410 L 161,411 L 161,412 L 161,413 L 161,414 L 161,415 L 161,416 L 161,417 L 161,418 L 161,419 L 161,419 Z" fill="rgb(206,198,112)" stroke="#ffffff" stroke-width="2"/>
<path id="region-6" d="M 250,312 L 249,312 L 248,312 L 247,312 L 246,312 L 245,312 L 244,312 L 243,312 L 242,312 L 241,312 L 240,312 L 239,312 L 238,312 L 237,312 L 236,312 L 235,312 L 234,312 L 233,312 L 232,312 L 231,312 L 230,312 L 229,312 L 228,312 L 227,312 L 226,312 L 225,312 L 224,312 L 223,312 L 222,312 L 221,312 L 220,312 L 219,312 L 218,312 L 217,312 L 216,312 L 215,312 L 214,312 L 213,312 L 212,312 L 211,312 L 210,312 L 209,312 L 208,312 L 207,312 L 206,312 L 205,312 L 204,312 L 203,312 L 202,312 L 201,312 L 200,312 L 199,312 L 198,312 L 197,312 L 196,312 L 195,312 L 194,312 L 193,312 L 192,312 L 191,312 L 190,312 L 189,312 L 188,312 L 187,312 L 186,312 L 185,312 L 184,312 L 183,312 L 182,312 L 181,312 L 180,312 L 179,312 L 178,312 L 177,312 L 176,312 L 175,312 L 174,312 L 173,312 L 172,312 L 171,312 L 170,312 L 169,312 L 168,312 L 167,312 L 166,312 L 165,312 L 164,312 L 163,312 L 162,312 L 161,312 L 160,312 L 159,312 L 160,311 L 161,311 L 162,311 L 163,311 L 164,311 L 165,311 L 166,311 L 167,311 L 168,311 L 169,311 L 170,311 L 171,311 L 172,311 L 173,311 L 174,311 L 175,311 L 176,311 L 177,311 L 178,311 L 179,311 L 180,311 L 181,311 L 182,311 L 183,311 L 184,311 L 185,311 L 186,311 L 187,311 L 188,311 L 189,311 L 190,311 L 191,311 L 192,311 L 193,311 L 194,311 L 195,311 L 196,311 L 197,311 L 198,311 L 199,311 L 200,311 L 201,311 L 202,311 L 203,311 L 204,311 L 205,311 L 206,311 L 207,311 L 208,311 L 209,311 L 210,311 L 211,311 L 212,311 L 213,311 L 214,311 L 215,311 L 216,311 L 217,311 L 218,311 L 219,311 L 220,311 L 221,311 L 222,311 L 223,311 L 224,311 L 225,311 L 226,311 L 227,311 L 228,311 L 229,311 L 230,311 L 231,311 L 232,311 L 233,311 L 234,311 L 235,311 L 236,311 L 237,311 L 238,311 L 239,311 L 240,311 L 241,311 L 242,311 L 243,311 L 244,311 L 245,311 L 246,311 L 247,311 L 248,311 L 249,311 L 250,311 L 250,312 L 250,312 Z" fill="rgb(209,202,127)" stroke="#ffffff" stroke-width="2"/>
<path id="region-7" d="M 162,421 L 161,421 L 161,420 L 161,419 L 161,418 L 161,417 L 161,416 L 161,415 L 161,414 L 161,413 L 161,412 L 161,411 L 161,410 L 161,409 L 161,408 L 161,407 L 161,406 L 161,405 L 161,404 L 161,403 L 161,402 L 161,401 L 161,400 L 161,399 L 161,398 L 161,397 L 161,396 L 161,395 L 161,394 L 161,393 L 161,392 L 161,391 L 161,390 L 161,389 L 161,388 L 161,387 L 161,386 L 161,385 L 161,384 L 161,383 L 161,382 L 161,381 L 161,380 L 161,379 L 161,378 L 161,377 L 161,376 L 161,375 L 161,374 L 161,373 L 161,372 L 161,371 L 161,370 L 161,369 L 161,368 L 161,367 L 161,366 L 161,365 L 161,364 L 161,363 L 161,362 L 161,361 L 161,360 L 161,359 L 161,358 L 161,357 L 161,356 L 161,355 L 161,354 L 161,353 L 161,352 L 161,351 L 161,350 L 161,349 L 161,348 L 161,347 L 161,346 L 161,345 L 161,344 L 161,343 L 161,342 L 161,341 L 161,340 L 161,339 L 161,338 L 161,337 L 161,336 L 161,335 L 161,334 L 161,333 L 161,332 L 161,331 L 161,330 L 161,329 L 161,328 L 161,327 L 161,326 L 162,325 L 162,326 L 162,327 L 162,328 L 162,329 L 162,330 L 162,331 L 162,332 L 162,333 L 162,334 L 162,335 L 162,336 L 162,337 L 162,338 L 162,339 L 162,340 L 162,341 L 162,342 L 162,343 L 162,344 L 162,345 L 162,346 L 162,347 L 162,348 L 162,349 L 162,350 L 162,351 L 162,352 L 162,353 L 162,354 L 162,355 L 162,356 L 162,357 L 162,358 L 162,359 L 162,360 L 162,361 L 162,362 L 162,363 L 162,364 L 162,365 L 162,366 L 162,367 L 162,368 L 162,369 L 162,370 L 162,371 L 162,372 L 162,373 L 162,374 L 162,375 L 162,376 L 162,377 L 162,378 L 162,379 L 162,380 L 162,381 L 162,382 L 162,383 L 162,384 L 162,385 L 162,386 L 162,387 L 162,388 L 162,389 L 162,390 L 162,391 L 162,392 L 162,393 L 162,394 L 162,395 L 162,396 L 162,397 L 162,398 L 162,399 L 162,400 L 162,401 L 162,402 L 162,403 L 162,404 L 162,405 L 162,406 L 162,407 L 162,408 L 162,409 L 162,410 L 162,411 L 162,412 L 162,413 L 162,414 L 162,415 L 162,416 L 162,417 L 162,418 L 162,419 L 162,420 L 162,421 L 162,421 Z" fill="rgb(230,230,230)" stroke="#ffffff" stroke-width="2"/>
<path id="region-8" d="M 251,313 L 250,313 L 249,313 L 248,313 L 247,313 L 246,313 L 245,313 L 244,313 L 243,313 L 242,313 L 241,313 L 240,313 L 239,313 L 238,313 L 237,313 L 236,313 L 235,313 L 234,313 L 233,313 L 232,313 L 231,313 L 230,313 L 229,313 L 228,313 L 227,313 L 226,313 L 225,313 L 224,313 L 223,313 L 222,313 L 221,313 L 220,313 L 219,313 L 218,313 L 217,313 L 216,313 L 215,313 L 214,313 L 213,313 L 212,313 L 211,313 L 210,313 L 209,313 L 208,313 L 207,313 L 206,313 L 205,313 L 204,313 L 203,313 L 202,313 L 201,313 L 200,313 L 199,313 L 198,313 L 197,313 L 196,313 L 195,313 L 194,313 L 193,313 L 192,313 L 191,313 L 190,313 L 189,313 L 188,313 L 187,313 L 186,313 L 185,313 L 184,313 L 183,313 L 182,313 L 181,313 L 180,313 L 179,313 L 178,313 L 177,313 L 176,313 L 175,313 L 174,313 L 173,313 L 172,313 L 171,313 L 170,313 L 169,313 L 168,313 L 167,313 L 166,313 L 165,313 L 164,313 L 163,313 L 162,313 L 161,313 L 160,313 L 159,313 L 160,312 L 161,312 L 162,312 L 163,312 L 164,312 L 165,312 L 166,312 L 167,312 L 168,312 L 169,312 L 170,312 L 171,312 L 172,312 L 173,312 L 174,312 L 175,312 L 176,312 L 177,312 L 178,312 L 179,312 L 180,312 L 181,312 L 182,312 L 183,312 L 184,312 L 185,312 L 186,312 L 187,312 L 188,312 L 189,312 L 190,312 L 191,312 L 192,312 L 193,312 L 194,312 L 195,312 L 196,312 L 197,312 L 198,312 L 199,312 L 200,312 L 201,312 L 202,312 L 203,312 L 204,312 L 205,312 L 206,312 L 207,312 L 208,312 L 209,312 L 210,312 L 211,312 L 212,312 L 213,312 L 214,312 L 215,312 L 216,312 L 217,312 L 218,312 L 219,312 L 220,312 L 221,312 L 222,312 L 223,312 L 224,312 L 225,312 L 226,312 L 227,312 L 228,312 L 229,312 L 230,312 L 231,312 L 232,312 L 233,312 L 234,312 L 235,312 L 236,312 L 237,312 L 238,312 L 239,312 L 240,312 L 241,312 L 242,312 L 243,312 L 244,312 L 245,312 L 246,312 L 247,312 L 248,312 L 249,312 L 250,312 L 251,312 L 251,313 L 251,313 Z" fill="rgb(233,233,233)" stroke="#ffffff" stroke-width="2"/>
</svg>