<svg xmlns="http://www.w3.org/2000/svg" viewBox="0 0 315 450">
<g fill="none" stroke="#000" stroke-width="1.1" stroke-linecap="round" stroke-linejoin="round" vector-effect="non-scaling-stroke">
<path d="M 132,136 L 97,111 L 91,113 L 79,131 L 70,127 L 66,130 L 62,124 L 61,115 L 65,113 L 66,104 L 60,98 L 57,86 L 62,88 L 66,82 L 77,83 L 83,77 L 81,68 L 88,57 L 96,52 L 103,53 L 109,47 L 124,55 L 125,69 L 147,66 L 139,78 L 136,100 L 122,102 L 122,110 L 129,111 L 127,116 L 139,121 L 132,136 Z"/>
<path d="M 219,118 L 180,110 L 177,92 L 158,92 L 150,98 L 149,106 L 139,118 L 130,114 L 130,108 L 124,108 L 123,104 L 139,100 L 141,78 L 149,68 L 152,56 L 175,52 L 184,62 L 202,63 L 212,72 L 215,88 L 220,94 L 217,102 L 219,118 Z"/>
<path d="M 241,196 L 224,196 L 223,184 L 208,183 L 200,183 L 195,190 L 151,191 L 151,182 L 160,180 L 160,142 L 144,142 L 143,158 L 121,147 L 136,135 L 151,101 L 158,94 L 177,94 L 178,112 L 220,122 L 224,148 L 236,167 L 248,176 L 241,196 Z"/>
<path d="M 100,223 L 95,223 L 70,199 L 77,194 L 73,187 L 76,179 L 72,174 L 73,148 L 95,113 L 128,137 L 120,144 L 119,150 L 123,152 L 145,160 L 144,145 L 158,144 L 158,178 L 149,181 L 149,191 L 134,194 L 130,201 L 120,198 L 117,215 L 100,223 Z"/>
<path d="M 161,419 L 154,419 L 149,412 L 139,411 L 133,405 L 120,406 L 118,397 L 111,392 L 91,392 L 82,387 L 79,372 L 63,357 L 54,335 L 46,334 L 43,320 L 46,308 L 42,306 L 49,300 L 45,298 L 43,289 L 46,280 L 42,277 L 42,266 L 34,263 L 46,255 L 45,249 L 52,233 L 49,229 L 65,206 L 66,196 L 94,225 L 118,217 L 122,200 L 131,203 L 135,196 L 157,190 L 166,193 L 195,192 L 201,185 L 212,185 L 221,187 L 222,198 L 240,199 L 243,217 L 254,235 L 258,254 L 250,311 L 158,313 L 158,325 L 161,326 L 161,419 Z"/>
<path d="M 250,312 L 159,312 L 250,312 Z"/>
<path d="M 162,421 L 162,325 L 162,421 Z"/>
<path d="M 251,313 L 159,313 L 251,313 Z"/>
</g></svg>