<?xml version="1.0" encoding="UTF-8"?>
<!DOCTYPE svg PUBLIC "-//W3C//DTD SVG 1.1//EN" "http://www.w3.org/Graphics/SVG/1.1/DTD/svg11.dtd">
<!-- Creator: CorelDRAW -->
<svg xmlns="http://www.w3.org/2000/svg" xml:space="preserve" width="210mm" height="297mm" version="1.1" style="shape-rendering:geometricPrecision; text-rendering:geometricPrecision; image-rendering:optimizeQuality; fill-rule:evenodd; clip-rule:evenodd"
viewBox="0 0 21000 29700"
 xmlns:xlink="http://www.w3.org/1999/xlink">
 <defs>
  <style type="text/css">
   <![CDATA[
    .str1 {stroke:black;stroke-width:10;stroke-miterlimit:3.864;stroke-opacity:0.501961}
    .str3 {stroke:black;stroke-width:50;stroke-miterlimit:22.9256}
    .str5 {stroke:#434242;stroke-width:10;stroke-miterlimit:22.9256}
    .str0 {stroke:black;stroke-width:10;stroke-miterlimit:22.9256}
    .str2 {stroke:black;stroke-width:10;stroke-miterlimit:3.864}
    .str6 {stroke:#2B2A29;stroke-width:7.62;stroke-miterlimit:22.9256}
    .str4 {stroke:black;stroke-width:7.62;stroke-miterlimit:22.9256}
    .fil7 {fill:none}
    .fil2 {fill:#FEFEFE}
    .fil0 {fill:#EBECEC}
    .fil1 {fill:#D9DADA}
    .fil9 {fill:#D9DADA}
    .fil6 {fill:#FEFEFE;fill-rule:nonzero}
    .fil5 {fill:#D9DADA;fill-rule:nonzero}
    .fil8 {fill:#434242;fill-rule:nonzero}
    .fil4 {fill:black;fill-rule:nonzero}
    .fil3 {fill:#FEFEFE;fill-rule:nonzero;fill-opacity:0.501961}
   ]]>
  </style>
 </defs>
 <g id="Plan_x0020_1">
  <metadata id="CorelCorpID_0Corel-Layer"/>
  <path class="fil0 str0" d="M16987.72 20395.23l-6402.66 1.34 0 800.89 208.09 0 -2.9 6840.81 0 0c55.56,44.44 113.71,85.05 191.19,34.21 42.92,-28.17 117.76,-38.4 168.02,-32.22 53.73,6.61 66.25,39.04 108.45,63.26 66.28,38.04 148.17,-48.47 224.03,11.93 63.36,50.44 75.05,26.55 146.58,20.29 52.16,-4.56 69.76,23.11 114.4,38.2 54.05,18.27 123.07,-41.68 188.29,-26.26 68.13,16.11 89.48,87.32 165.64,72.81 54.61,-10.4 158.05,-26.27 202.58,11.93 49.93,42.84 31.54,73.93 109.64,97.88 70.42,21.6 159.96,60.13 190.67,133.68 14.47,34.66 0.42,59.42 -1.2,93.1 -1.67,34.64 19.5,61.94 27.41,94.29 3.84,15.73 -0.04,32.42 -0.04,48.63l0 0 6171.6 0 0 -8293.88 0 0 -1809.79 -10.89 0 0z"/>
  <path class="fil0 str0" d="M16987.72 20395.23l1809.79 10.89 0 0 0 -18764.28 0 0 -359.74 -90.71c-97.91,-15.39 -195.15,-13.44 -265.75,60.87 -62.52,65.82 -22.01,132.22 -54.82,181.43 -24.43,36.66 -376.56,-49.46 -438.53,-56.1 -94.22,-10.09 -280.7,8.88 -359.89,-26.26 -40.21,-17.85 17.28,-99.06 -10.72,-109.81 -100.27,-38.48 -236.4,-17.45 -345.59,-63.26l-290.89 -267.96 0 0c-67.03,17.88 -141.13,32.69 -209.73,42.37l-207.35 29.25c-8.48,-1.97 -22.87,1.19 -32.17,1.19 -135.11,17.75 -242.83,-28.81 -376.56,-13.13 -128.15,15.02 -253.47,21.95 -381.33,10.15 -67.72,3.46 -161.45,9.66 -226.42,-9.55 -53,-15.68 -87.72,-55.28 -142.4,-72.22 -88.39,-27.4 -267.11,-5.51 -354.52,22.68 -120.44,18.18 -200.99,-42.05 -310.42,-64.45 -79.78,-16.32 -140.7,-12.53 -218.08,-12.53 -2.56,2.04 -3.78,1.76 -7.88,3.07 3.14,36.71 5.03,72.2 27.62,117.48 44.55,89.25 103.92,174.78 83.41,281.68 -9.31,48.55 -43.28,99.13 -83.41,127.72 -45.03,32.09 -69.59,85.61 -71.51,138.45 -3.08,84.77 -63.67,182.42 -21.45,250.65 38.43,62.12 -67.26,128.45 -33.36,186.2 41.08,69.98 205.27,53.82 145.38,174.27 -20.32,40.89 -68.4,70.76 -65.54,121.74 3.66,65.01 -28.9,82.66 -19.07,157.55 11.35,86.45 -41.25,143.02 -11.91,214.85 26.94,65.95 -15.71,101.81 -20.26,167.1 -6.22,89.22 79.35,136 96.52,219.62 2.55,12.41 4.84,22.48 7.35,31.17l0 0c7.56,26.07 17.26,39.81 42.7,67.89 29.53,32.61 27,97.6 39.33,139.65 9.94,33.9 55.34,31.7 55.34,69.83 0,23.59 -0.74,60.2 11.32,80.56 18.7,31.57 65.64,16 60.18,64.46 -1.85,16.48 -16,30.96 -17.88,47.74 -2.63,23.46 -8,46.3 -3.57,69.83 9.42,49.97 1.98,110.24 34.56,153.97 14.87,19.96 33.59,51.55 14.89,73.4 -16.94,19.79 -48.72,53.79 -35.75,82.96 10.35,23.27 74.97,9.86 102.49,33.42 25.41,21.75 28.75,59.41 11.32,84.14 -44.66,63.37 42.74,103.23 67.32,136.07 16.22,21.68 24.66,74.8 2.98,94.89 -22.35,20.71 -39.3,61.2 -17.28,88.92 41.03,51.65 80.44,-13.14 64.35,84.15 -6.08,36.75 27.44,73.95 35.16,117.57 13.74,77.58 55.29,56.3 108.44,82.95 38.09,19.1 41.67,51.56 49.45,88.92 12.9,61.89 35.4,115.16 63.76,171.88 42.12,84.26 -70.05,59.33 -56.61,137.86 8.99,52.57 30.39,125.95 30.39,179.63 0,60.37 -29.13,38.1 -45.88,71.62 -20.35,40.71 -36.18,8.79 -54.82,35.8 -38.13,55.24 20.95,84.75 -73.28,84.75 -53.92,0 -38.59,89.08 -37.54,129.5 0.59,22.62 4.11,41.68 20.26,63.26 22.95,30.68 63.5,37.25 65.54,83.55 2.37,53.73 -13.06,121.88 16.68,170.68 17.76,29.15 10.03,53.49 22.64,80.57 12.98,27.87 22.4,64.61 22.05,97.87 -0.28,26.61 32.83,25.08 37.54,42.97 8.31,31.57 -0.54,93.73 -2.39,127.72 -1.45,26.77 -53.22,35.58 -39.92,55.5 26.73,40.01 88.09,58.79 76.27,119.95 -3.95,20.49 -20.44,36.16 -26.22,56.1 -7.76,26.76 14.72,59.22 5.37,84.75 -32.09,87.61 -3.51,164.14 29.19,241.1 27.5,64.71 9.23,53.82 -12.51,108.61 -17.33,43.69 -30.46,87.24 -15.49,134.28 0.7,2.2 3.72,3.66 3.57,5.97 -1.54,23.62 0.42,103.4 -0.59,121.15 -1.62,28.5 -17.37,65.01 1.19,91.9 41.34,59.9 7.12,70.08 16.68,130.1 9.6,60.27 40.62,97.18 60.18,152.78 27.61,78.48 -2.74,161.27 13.7,239.32 17.62,83.65 -15.59,160.28 -11.91,247.66 2.95,70.09 34.94,82.64 64.35,138.46 20.11,38.17 20.98,66.06 57.79,93.69 53.49,40.16 32.25,76.09 53.63,130.1 25.32,63.97 39.99,111.83 98.31,151.59 57.52,39.21 38.19,69.22 64.94,127.71 44.37,96.99 95.01,98.51 178.16,142.64 70.81,37.58 60.69,126.24 57.79,198.13 -1.9,47.12 16.09,93.57 16.09,142.04 0,29.48 0.67,56.72 5.78,81.46 7.99,38.61 26.87,71.23 71.08,96.98 69.59,40.55 111.46,104.52 196.62,124.73 2.47,0.58 4.94,-0.35 8.94,1.19 27.04,10.42 95.93,64.78 115.59,88.32 62.44,74.77 13.66,120.61 39.92,199.93 26.44,79.86 88.99,142.62 136.45,211.26 41.41,59.89 23.92,94.06 50.05,149.2 41.27,87.08 97.2,132.7 176.96,182.02 38.24,23.64 39.87,83.48 80.43,92.5 56.74,12.62 83.03,13.01 120.36,60.28 20.11,25.46 23.05,49.89 21.45,82.95 -1.22,25.35 -1.62,43.7 4.77,68.63 8.36,32.6 33.99,49.84 39.92,87.13 6.14,38.6 5.02,72.57 -2.39,110.41 -8.91,45.51 -40.51,71.77 -40.51,123.54 0,7.66 0.66,15.82 1.7,24.31 7.35,59.5 34.58,136.44 -1.11,185.16 -20.34,27.75 -30.26,63.15 -22.04,96.68 7.98,32.57 50.97,45.12 36.34,88.32 -7.88,23.27 -19.04,57.31 -45.28,68.04 -46.71,19.12 -14.91,101.11 -5.36,138.45 8.88,34.73 18.09,107.48 -11.32,134.88 -24.29,22.63 -61.42,-34.07 -90.57,-25.07 -24.49,7.56 -6.12,48.05 -11.32,65.05 -10.93,35.71 -57.15,-20.9 -81.63,3.58 -18.29,18.29 -21.29,72.31 -21.45,99.07 -0.29,46.56 -5.54,97.23 5.37,148.6 6.39,30.11 14.02,68.7 -13.71,89.52 -57.2,42.94 23.24,81.75 23.24,131.89 0,25.13 -88.41,66.2 -39.33,106.23 14.58,11.89 22.41,55.09 42.31,71.02 52.93,42.37 63.61,-19.95 48.86,79.97 -8.33,56.48 7.96,38.22 -42.31,65.05 -66.62,35.56 34.16,95.31 60.78,116.37 50.18,39.71 58.29,101.47 39.92,161.14 -16.11,52.32 -12.5,71.65 -1.79,124.13 12.45,61.01 -13.67,116.84 -9.53,179.04 1.11,16.82 3.17,32.4 5.92,47.2 9.85,52.88 17.63,101.12 47.1,151.53 15.66,26.79 29.09,119.07 39.92,151.58 12.67,38.05 32.51,63.14 49.46,97.28 25.81,51.97 30.85,110.2 73.88,153.37 43.82,43.96 61.71,80.97 82.82,138.46 9.31,25.37 13.61,54.85 32.77,79.97 37.8,49.54 74.77,60.92 132.28,81.76 69.6,25.23 111.25,88.82 49.45,147.41 -87.12,82.59 -28.81,103.15 10.72,189.18 16.69,36.33 50.66,80.21 73.89,115.18 67.43,101.48 199.78,210.31 210.32,339.57 2.88,35.41 10.23,72.56 30.99,102.65 39.79,57.64 14.4,127.71 33.96,191.57 22.84,74.54 72.13,102.21 5.96,180.23 -2.61,3.08 -4.97,3.2 -7.15,5.97 -33.05,41.94 -11.92,54.1 -11.92,99.66 0,76.38 10.43,111.61 32.18,182.62 20.68,67.51 0.15,136.98 42.3,204.1 18.85,30.02 17.52,68.45 36.94,101.46 30.72,52.21 53.26,84.54 60.78,146.21 7.62,62.52 -7.39,129.11 -2.39,191.57 7.83,97.65 19.28,205.96 22.64,304.36 3.24,94.99 -83.42,129.44 -85.2,222.61 -0.91,47.67 -1.8,92.48 16.68,137.85 12.46,30.6 42.75,54.17 49.46,87.13 20.07,98.51 -55.53,188.71 -56.61,282.88 -0.03,2.61 -3.83,4.69 -2.98,7.16 19.91,57.31 -45.22,93.58 -26.81,149.2 11.72,35.42 4.73,116.42 3.58,154.57 -1.8,59.46 -3.45,128.86 -7.75,187.39 -6.64,90.43 -13.97,225.08 -56.01,306.75 -19.88,38.63 -50.03,58.19 -75.67,90.12 -39.53,49.21 -49.29,61.23 -54.22,122.94 -2.45,30.72 27.14,17.39 37.54,37 9.12,17.19 -4.62,41.12 0,60.87 9.18,39.19 35.75,19 31.58,74.6 -2.05,27.47 -18.93,50.34 -25.03,76.39 -10.61,45.29 -3.02,81.9 -26.21,125.92 -25.67,48.72 -53.05,106.81 -51.24,161.73 1.25,37.98 20.18,68.06 8.34,103.84 -19.99,60.38 19.34,123.05 5.96,188.59 -13.19,64.61 -55.14,104.25 -64.95,175.46 -12.87,93.48 -82.62,162.23 -70.31,263.18 5.23,42.86 22.26,115.75 2.39,155.76 -25.4,51.14 -52.44,33.46 -52.44,106.23 0,39.26 32.77,65.07 5.37,105.63 -25.88,38.31 -48.21,79.94 -11.92,122.34 16.66,19.46 18.66,47.91 8.94,69.23 -7.78,17.08 -10.52,38.55 -17.53,57.15l0 0z"/>
  <path class="fil1 str0" d="M2257.32 1000l-11.92 57.58c-18.96,65.7 39.66,39.62 72.1,72.22 51.74,51.97 134.96,105.59 204.37,139.05 30.18,14.54 40.38,-3.58 68.52,-3.58 27.94,0 38.56,52.51 80.43,52.51 40.15,0 80.71,-28.12 126.91,-31.03 89.15,0 125.06,-32.87 152.54,62.07 19.6,67.69 65.11,71.15 118.57,97.87 49.02,24.51 108.11,138.57 130.48,189.18 47.72,108 -55.54,90.04 -131.68,134.28 -31.03,48.43 0.89,112.54 -26.21,150.39 -10.36,14.46 -21,-2.77 -29.2,23.87 -21.62,70.24 -56.53,9.45 -77.45,47.15 -40.92,73.77 -153.54,68.89 -216.29,24.47 -44.95,-31.83 -75.72,-103.47 -137.64,-84.15 -117.63,36.69 -19.93,116.32 48.27,146.81 169.03,75.55 34.7,50.72 44.09,168.3 35.62,92.21 61.98,147.03 162.06,172.47 0.27,1.08 0.1,0.93 1.19,1.19 2.71,10.85 -28.19,55.33 -33.96,69.83 -38.8,97.54 -3.18,164.22 42.9,247.66 -5.73,12.72 10.43,26.64 -3.57,39.39 -39.82,36.25 -8.54,29.65 -5.96,71.62 1.49,24.4 -23.89,25.71 -30.39,46.55 -9.71,31.17 -32.74,93.15 -30.98,123.53 2.71,46.94 56.19,39.47 85.8,57.89 23.24,14.47 22.32,43.96 41.11,61.47 29.87,27.82 90.65,-11.52 110.23,24.47 10.2,18.77 4.7,32.06 24.43,48.94 19.95,17.08 43.84,29.89 64.35,47.74 61.51,37.82 67.92,47.54 67.92,119.36 0,42.83 -54.04,51.16 -28,103.24 53.97,107.94 -8.54,73.49 -44.1,153.97 -13.12,29.68 -14.15,77.16 -1.78,106.83 12.18,29.19 69.02,8.99 82.82,43.56 57.21,100.48 217.82,77.26 263.35,174.27 10.67,22.72 34.83,47.74 39.33,71.02 3.12,16.19 -14.3,36.6 -14.3,54.9 0,55.78 63.04,114.85 67.33,179.04 -2.22,22.8 9.36,93.84 -0.61,136.88l0 0c-5.98,25.83 -19.72,41.59 -48.85,30.82 -29.92,17.79 -27.42,9.34 -47.07,44.75 -22.8,41.11 -56.82,63.49 -68.52,113.39 -17.36,74.06 44.26,87.65 60.18,150.99 0,31.85 21.45,64.88 21.45,99.07 0,67.61 -5.59,129.89 -13.7,196.34 -9.23,75.7 50.39,126.42 74.47,193.36 8.6,22.22 12.57,57.68 28.6,75.8 -0.88,10.01 37.06,41.28 45.29,48.34 28.07,24.12 0.16,96.55 36.94,112.79 66.48,29.35 33.58,96.58 120.95,113.39 67.83,13.06 67.33,67.53 67.33,127.71 11.06,28.67 4.77,56.09 33.37,77.59 43.57,32.74 289.39,82.71 181.13,190.97 -60.22,60.22 -32.32,72.58 -7.15,133.08 20.24,48.63 -54.16,55.37 -83.42,84.75 -28.26,65.3 -11.91,95.93 -11.91,165.31 0,142.62 -69.96,128.96 -181.14,147.4 -42.1,6.98 -66.31,45.99 -72.69,85.35 -9.43,58.24 34.32,46.81 54.22,87.13 19.53,24.9 44.65,90.07 33.97,121.15 -21.92,63.74 -62.12,135.49 26.21,169.48 89.74,34.52 -10.73,81.56 -15.49,133.68 8.18,42.55 -6.42,87.12 -4.77,130.1 1.8,46.78 2.91,211.27 74.48,211.27 91.5,0 51.81,60.9 47.07,117.57 14.06,16.76 -8.92,57.16 -3.57,79.97 13.01,55.5 97.71,4.4 97.71,89.51 0,89.98 6,149.88 113.81,108.62 79.25,-30.32 98.44,-136.33 180.53,-172.47 36.4,-15.28 75.13,-86.08 80.44,-122.94 2.52,-0.63 2.06,-1.25 4.77,-0.6 21.17,87.63 26.43,88.36 109.03,119.96 45.92,17.57 71.28,54.45 119.17,6.56 54.97,-54.97 86.36,42.97 158.49,42.97 71.67,0 75.32,85.6 101.29,132.49 12.38,44.12 50.38,104.9 48.26,148.6 -2.1,43.17 -21.22,165.01 -59.58,191.57 -21.74,15.06 -94.46,-19.27 -104.27,6.56 -9.78,25.77 47.07,69.3 47.07,103.25 19.61,66.72 -19.64,50.33 -59.58,72.21 -41.57,22.78 43.56,162.4 -11.92,190.97 -34.76,17.89 -48.53,43.9 -43.5,82.96 5.57,43.16 -10.55,77.99 -32.77,113.98 -24.76,52.9 -61.58,50.59 -89.97,90.72 -29.21,41.31 -11.32,171.19 -11.32,223.19 0,40.7 -22.91,62.17 -37.53,96.68 -16.98,40.11 -10.28,89.52 0,130.7 6.57,37.47 8.93,91.29 -14.3,122.34 -51.62,68.97 13.46,135.54 42.3,193.36 42.4,84.98 -14.33,124.7 -58.39,190.98l-59.58 114.58c-18.02,34.67 0.4,69.33 13.7,102.65 16.13,40.37 2.86,102.43 5.96,147.41 3.55,51.6 -5.82,109.98 7.74,160.53l6.56 2.99c7.02,50.37 78.73,60.2 94.14,100.85 10.43,27.5 48.98,58.13 29.79,85.94 -30.79,44.59 -88.6,68.05 -112.61,116.38 -23.66,47.64 -55.98,109.81 -60.18,164.11 -11.02,28.57 26.89,66.52 45.88,84.15 25.01,23.2 44.08,17.17 55.41,-15.52 12.58,-36.32 92.48,-57.37 94.74,-13.72 2.02,39.16 10.95,92.59 25.62,129.5 11.66,29.31 21,53.24 50.64,65.65 51.65,21.64 42.19,32.72 13.71,76.39 -26.08,39.97 -49.81,91.38 -82.23,126.52 5.75,23.07 -13.91,38.15 10.73,60.87 18.93,17.47 44.71,13.24 65.54,25.06 3.62,26.11 -14.31,103.05 -45.28,111.01 -34.77,8.95 -55.83,11.71 -53.63,54.3 2.88,55.8 -82.92,61.78 -58.99,107.43 25.36,48.36 105.68,104.49 145.39,146.81 21.54,11.84 46.32,53.47 69.71,72.21 65.02,52.07 83.52,176.94 69.11,257.22 -9.87,55.04 -35.65,88.32 -93.54,88.32 -46.31,0 -101.31,29.89 -144.79,48.94 -34.38,37.53 -96.79,0.06 -120.95,19.09 -34.36,27.08 -7.94,95.85 -51.24,117.57 -65.33,32.76 -146.01,-96.87 -190.07,-130.1 -55.53,-41.9 -101.42,-31.81 -159.09,-2.98 -42.47,21.23 -144.77,96.37 -134.65,152.78 18.62,103.82 90.81,171.09 36.34,280.49 -0.67,22.11 -20.42,37.3 -11.91,65.05 21.77,71.02 107.99,181.08 -5.96,219.62 -40.5,13.69 -102.83,15.87 -94.14,74.6 7.71,52.07 -23.15,83.55 -61.37,118.76 -10.61,32.92 -77.69,100.06 -108.44,116.37 -39.15,20.78 -72.73,-44.91 -113.81,-25.66 -32.74,15.35 -22.46,82.31 -26.81,111.6 -15.58,104.97 -117.54,199.08 -150.15,297.2 -10.06,59 -91.61,52.15 -92.95,82.95 -1.84,41.99 -16.42,51.91 -44.09,77.59 -85.71,79.53 -48.78,224.09 -55.41,329.42 -11.36,64.8 12.89,101.51 -78.65,116.38 -72.49,11.78 -29.66,176.66 -129.89,210.07 -36.06,12.01 -76.37,-1.75 -106.06,28.05 -37.22,37.34 -29.58,72.83 -25.62,121.74 24.57,36.25 51.81,68.4 91.16,91.31 25.83,15.05 119.26,4.39 125.72,13.13 -7.05,36.22 -33.56,69.54 -39.92,108.02 -4.67,28.23 -7.82,62.13 -17.28,88.92 -17.38,49.26 -70.21,67.56 -56,128.31 15.26,65.28 28.12,66.47 -32.18,110.41 -12.75,26.39 -5.86,46.49 -28.6,73.4 -20.66,24.46 -38.36,30.78 -53.03,62.67 -19.49,42.34 -21.77,92.74 -75.07,100.85 -37.44,5.7 -12.62,131.86 -6.56,162.33 15.27,76.84 -45.01,102.22 -98.31,146.21 -7.93,24.72 -23.17,35.51 -19.66,66.25 6.64,58.23 1.66,101.38 -42.9,139.65 -24.27,20.85 -24.73,157.88 -10.72,183.21 15.18,27.47 54.6,29.85 66.73,54.31 11.28,22.73 -25.48,58.95 -37.54,75.79 9.7,28.25 -9.94,60.48 10.13,98.47 15.67,29.68 -7.29,52.65 -14.89,81.76 -9.97,38.13 5.45,146.49 -63.16,112.2 -50.8,-25.4 -36.61,-7.65 -67.93,26.26 -39.76,43.03 -78.51,31.15 -120.35,70.42 -28.44,26.68 -142.44,31.89 -186.5,42.97 -21.84,16.64 -63.33,20.29 -89.97,20.29 -64.88,0 -65.76,-71.57 -117.97,-1.79 -22.7,30.33 -54.24,24.06 -82.82,41.77 -57.03,35.36 -11.38,99.28 -51.24,149.8 -70.96,89.91 -33.47,105.33 -8.94,202.91l5.36 4.77c0,96.14 200.25,53.09 250.25,130.7 28.32,43.95 101.65,0 144.19,0 25.27,0 107.11,12.93 125.72,26.26 8.18,64.9 35.12,61.11 67.92,108.61 29.34,42.51 -20.96,110.15 -44.68,142.64 -13.01,13.55 -19.06,33.1 -37.54,42.37 -58.98,29.57 -58.68,37.48 -13.11,90.71 33.31,38.92 -11.87,39.46 -28,68.63 -29.55,53.46 102.78,71.88 60.18,106.23 -59.2,47.75 -32.99,116.43 14.3,163.52 18.57,28.43 31.61,54.71 66.13,66.24 59.2,19.76 58.31,-14 90.57,44.17 17.53,31.59 53.68,48.26 67.33,79.97 -13.98,18.33 -50.09,1.43 -72.69,13.13 -12.61,6.52 -14.95,20.45 -30.39,25.66 -10.73,3.63 -30.8,3.93 -42.31,5.37 -18.08,25.41 -1.78,127.25 -1.78,164.12 21.52,51.38 41.07,95.06 70.9,142.63 41.19,65.71 14.06,117.92 -47.07,159.34 -29.86,20.22 -68.01,24.84 -59.58,69.23 4.65,24.47 66.7,89.97 64.35,102.05 22.85,42.69 -28,107.43 44.68,128.91 40.34,11.93 67.67,14.25 69.72,61.47 1.09,24.99 8.24,47.32 15.49,71.01 6.26,20.42 0.04,43.71 4.76,65.05 6.03,27.27 41.62,44.3 42.9,69.23 1.76,34.1 -23.54,59.75 -48.85,80.57 -1.48,50.32 -37.11,70.7 -8.94,130.1 22.3,47.05 53.25,42.98 97.12,34.02 36.37,-7.42 101.43,33.09 117.38,69.22 12.77,28.9 -57.7,87.27 -76.87,107.43 -38.31,40.27 -53.59,54.2 -112.01,47.74 -74.49,-8.23 -5.68,110.41 -67.33,113.99 -53.06,3.09 -88.98,-28.96 -122.14,44.76 -14.41,65.77 -53.65,133.55 -1.79,198.13 31.38,39.06 134.9,13.41 182.32,25.06 0,18.18 -41.76,52 -51.84,72.22 -33.87,67.88 -49.52,50.35 -107.24,88.92 -73.52,49.11 8.26,89.96 39.32,121.15 28.83,15.93 46.88,20.26 76.27,32.22 6.13,2.5 5.94,117.52 10.13,139.65 5.38,28.43 37.52,72.68 36.34,94.29 -0.88,16.25 -42.33,55.49 -56.6,62.07 -33.27,15.33 -91.56,-0.85 -106.66,39.39l-59.58 158.75 0 0c36.85,29.17 44.38,173.39 39.33,218.42 -14.47,128.78 -109.69,170.74 -224.04,191.57 -134.69,24.54 -115.53,-157.06 -242.5,-182.62 -53.07,28.51 -91.28,-61.92 -144.19,-11.93 -12.29,11.62 -39.6,19.15 -30.38,37.59 30.97,61.97 45.69,68.6 33.36,140.25 -4.69,27.26 -19.56,73.51 -48.26,84.15 -20.07,7.45 -49.69,-11.51 -64.95,11.34 -18.68,27.95 -2.41,68.1 -49.45,77.58 -39.64,7.98 -65.96,10.18 -59.58,60.87 19.49,23.26 15.83,99.63 -28.01,94.89 -14.95,-1.62 -71.68,-35.62 -78.05,-10.14 -32.51,7.92 -207.77,146.44 -151.34,181.42 13.32,8.26 48.56,9.72 53.62,25.07 2.56,7.76 -7.45,79.08 -10.12,91.9 -5.82,27.94 -42.35,83.21 -57.8,109.81 -4.36,33.9 -37.28,56.51 -32.17,93.7 9.78,71.21 110.07,93.75 113.2,171.87 2.61,64.99 -5.51,96.48 -57.79,130.7 -30.98,20.27 -27.48,56.16 -55.41,76.98 -74.71,55.72 -86.49,-6.51 -115,-61.46 -30.68,-59.13 -131.32,64.54 -157.42,85.93l0 0 0 -21487.12 1257.32 0 0 0z"/>
  <path class="fil0 str0" d="M10788.39 28700l1.86 -661.73 0 0c55.56,44.44 113.71,85.05 191.19,34.21 42.92,-28.17 117.76,-38.4 168.02,-32.22 53.73,6.61 66.25,39.04 108.45,63.26 66.28,38.04 148.17,-48.47 224.03,11.93 63.36,50.44 75.05,26.55 146.58,20.29 52.16,-4.56 69.76,23.11 114.4,38.2 54.05,18.27 123.07,-41.68 188.29,-26.26 68.13,16.11 89.48,87.32 165.64,72.81 54.61,-10.4 158.05,-26.27 202.58,11.93 49.93,42.84 31.54,73.93 109.64,97.88 70.42,21.6 159.96,60.13 190.67,133.68 14.47,34.66 0.42,59.42 -1.2,93.1 -1.67,34.64 19.5,61.94 27.41,94.29 3.84,15.73 -0.04,32.42 -0.04,48.63l0 0 -1837.52 0 0 0z"/>
  <path class="fil0 str0" d="M10788.39 28700l1.86 -661.73 0 0c-50.58,-40.47 -99.03,-84.13 -157.97,-64.86 -49.2,16.08 -49.57,-40.04 -87,-52.51 -55.15,-18.37 -93.53,73.29 -154.91,7.16 -77.47,-83.47 -96.6,11.06 -183.52,25.06 -40.11,6.46 -220.54,-136.09 -231.19,-179.03 -14.33,-57.74 -17.4,-77.11 -70.31,-120.55 -61.75,-50.69 -33.8,-120.57 -64.35,-176.65 -41.87,-76.86 -64.7,-31.76 -128.7,-22.68 -37.69,5.34 -44.89,-47.75 -85.8,-47.75 -42.72,0 -112.53,74.72 -150.15,33.42 -41.44,-45.51 -97.21,-128.39 -168.03,-75.19 -48.05,36.09 -262.07,27.21 -278.85,-38.2 -20.74,-80.81 7.43,-53.16 -42.9,-128.9 -49.76,-74.89 -29.95,-81.67 -128.7,-106.23 -67.2,-16.71 -40.22,-105.24 -169.22,-66.84 -78.03,23.22 -51.47,108.4 -138.23,97.87 -101.79,-12.36 -73.76,32.09 -148.96,50.13 -29.72,7.12 -56.92,-48.95 -85.81,-62.06 -68.06,-30.89 -68.99,-28.06 -143,-32.23 -28.84,-1.62 -47.67,-37.79 -73.88,-47.74 -45.2,-17.17 -71.18,21.48 -113.21,21.48 -53.75,0 -78.62,-38.43 -139.43,-26.26 -57.37,11.48 -67.51,-29.16 -92.95,-70.42 -22.94,-37.21 -57.73,-93.81 -67.92,-134.87 -15.86,-63.89 8.11,-109 -10.73,-182.62 -17.05,-66.64 69.24,-89.76 38.14,-165.91 -22.75,-55.7 -80.34,-98.57 -104.87,-153.97 -17.71,-40.01 -85.67,-1.26 -103.68,-26.26 -66.37,-92.16 -48.42,-0.78 -138.23,-69.23 -63.16,-48.13 -126.32,-96.29 -189.48,-144.42 -56.61,-43.14 -90.64,-16.26 -141.81,-4.77 -138.02,30.98 -117.58,-185.75 -350.35,-99.07 -103.74,38.63 -155.76,21.55 -247.87,32.22 -60.48,7 -87.31,71.62 -133.47,71.62 -46.88,0 -66.73,-47.81 -101.29,-69.23 -85.75,-53.16 -138.53,108.32 -253.83,57.29 -64.81,-28.68 -113.52,20.23 -148.96,3.58 -24.51,-11.51 -38.49,-37.32 -64.35,-48.93 -30.5,-13.69 -54.6,31.37 -79.84,13.13 -30.44,-21.99 -33.31,-68.67 -72.69,-84.75 -49.37,-20.16 -68.36,11.44 -114.41,-34.61 -67.37,-67.37 -190.35,-144.55 -264.55,-183.81 -26.75,-14.15 -59.64,11.05 -89.37,-9.55 -40.66,-28.18 -55.76,-68.62 -90.57,-99.07 -50.18,-43.9 -103.19,-87.47 -90.57,-165.91 9.79,-60.86 -26.58,-99.9 -17.87,-148 5.96,-32.9 17.58,-70.59 -4.77,-97.87 -25.89,-31.61 -34.07,-79.07 -39.33,-132.49 -7.33,-74.52 17.92,-161.62 -1.19,-242.3 -11.25,-47.47 -4.94,-88.82 40.52,-121.74 31.24,-22.63 44.09,-45.35 44.09,-84.75 0,-22.98 -3.24,-41.59 -8.99,-58.2 -81.31,-27.81 -153.88,-91.83 -219.81,-129.19 -51.61,-29.24 -113.74,-19.07 -156.11,-58.48 -59.45,-55.28 -214.65,-197.25 -219.27,-279.3 -4.24,-75.23 48.32,-119.12 -48.86,-159.94 -71.51,-30.03 -101.03,-201.52 -169.22,-269.75 -57.26,-19.08 -132.14,-30.03 -173.98,-75.2 -33.11,-35.76 -40.08,-76 -85.8,-100.26 -123.61,-65.62 -79,-156.33 -163.26,-226.78 -46.18,-38.6 -105.54,-69.23 -145.39,-115.78 -20.05,-23.41 -81.24,-151.47 -79.84,-177.84 1.32,-24.97 -20.69,-69.56 -47.67,-74 -5.09,-25.71 11.87,-83.98 8.35,-93.1 -8.53,-22.04 -56.89,19.63 -77.46,11.94 0.59,-2.39 -39.45,-51.97 -47.67,-58.49 -31.91,-51.07 -18.6,-110.15 -51.24,-150.39 -34.79,-42.91 -50.17,-57.15 -13.11,-108.62 57.89,-80.37 -60.78,-149.04 -60.78,-244.68 0,-48.93 -23.45,-119.62 -15.49,-158.75 2.37,-11.64 16.17,-82.53 2.38,-85.93 -7.44,-30.15 -134.02,-58.46 -160.87,-66.84 -61.18,-19.1 -106.65,70.48 -154.92,100.26 -148.67,91.75 -217.29,-123.76 -263.36,-216.04 -43.81,-70.27 -87.38,-110.37 -82.23,-199.33 3.33,-57.45 19.11,-111.53 -16.68,-163.52 -86.3,-125.32 33.21,-201.95 7.15,-337.78 -13.84,-72.11 -24.08,-151.73 -60.78,-216.04l-82.07 -47.74 0 0c36.85,29.17 44.38,173.39 39.33,218.42 -14.47,128.78 -109.69,170.74 -224.04,191.57 -134.69,24.54 -115.53,-157.06 -242.5,-182.62 -53.07,28.51 -91.28,-61.92 -144.19,-11.93 -12.29,11.62 -39.6,19.15 -30.38,37.59 30.97,61.97 45.69,68.6 33.36,140.25 -4.69,27.26 -19.56,73.51 -48.26,84.15 -20.07,7.45 -49.69,-11.51 -64.95,11.34 -18.68,27.95 -2.41,68.1 -49.45,77.58 -39.64,7.98 -65.96,10.18 -59.58,60.87 19.49,23.26 15.83,99.63 -28.01,94.89 -14.95,-1.62 -71.68,-35.62 -78.05,-10.14 -32.51,7.92 -207.77,146.44 -151.34,181.42 13.32,8.26 48.56,9.72 53.62,25.07 2.56,7.76 -7.45,79.08 -10.12,91.9 -5.82,27.94 -42.35,83.21 -57.8,109.81 -4.36,33.9 -37.28,56.51 -32.17,93.7 9.78,71.21 110.07,93.75 113.2,171.87 2.61,64.99 -5.51,96.48 -57.79,130.7 -30.98,20.27 -27.48,56.16 -55.41,76.98 -74.71,55.72 -86.49,-6.51 -115,-61.46 -30.68,-59.13 -131.32,64.54 -157.42,85.93l0 0 0 6212.88 9788.39 0 0 0z"/>
  <path class="fil0 str0" d="M16671.58 1270.04l-165.04 -270.04 0 0 -14249.22 0 0 0 -11.92 57.58c-18.96,65.7 39.66,39.62 72.1,72.22 51.74,51.97 134.96,105.59 204.37,139.05 30.18,14.54 40.38,-3.58 68.52,-3.58 27.94,0 38.56,52.51 80.43,52.51 40.15,0 80.71,-28.12 126.91,-31.03 89.15,0 125.06,-32.87 152.54,62.07 19.6,67.69 65.11,71.15 118.57,97.87 49.02,24.51 108.11,138.57 130.48,189.18 47.72,108 -55.54,90.04 -131.68,134.28 -31.03,48.43 0.89,112.54 -26.21,150.39 -10.36,14.46 -21,-2.77 -29.2,23.87 -21.62,70.24 -56.53,9.45 -77.45,47.15 -40.92,73.77 -153.54,68.89 -216.29,24.47 -44.95,-31.83 -75.72,-103.47 -137.64,-84.15 -117.63,36.69 -19.93,116.32 48.27,146.81 169.03,75.55 34.7,50.72 44.09,168.3 35.62,92.21 61.98,147.03 162.06,172.47 0.27,1.08 0.1,0.93 1.19,1.19 2.71,10.85 -28.19,55.33 -33.96,69.83 -38.8,97.54 -3.18,164.22 42.9,247.66 -5.73,12.72 10.43,26.64 -3.57,39.39 -39.82,36.25 -8.54,29.65 -5.96,71.62 1.49,24.4 -23.89,25.71 -30.39,46.55 -9.71,31.17 -32.74,93.15 -30.98,123.53 2.71,46.94 56.19,39.47 85.8,57.89 23.24,14.47 22.32,43.96 41.11,61.47 29.87,27.82 90.65,-11.52 110.23,24.47 10.2,18.77 4.7,32.06 24.43,48.94 19.95,17.08 43.84,29.89 64.35,47.74 61.51,37.82 67.92,47.54 67.92,119.36 0,42.83 -54.04,51.16 -28,103.24 53.97,107.94 -8.54,73.49 -44.1,153.97 -13.12,29.68 -14.15,77.16 -1.78,106.83 12.18,29.19 69.02,8.99 82.82,43.56 57.21,100.48 217.82,77.26 263.35,174.27 10.67,22.72 34.83,47.74 39.33,71.02 3.12,16.19 -14.3,36.6 -14.3,54.9 0,55.78 63.04,114.85 67.33,179.04 -2.22,22.8 9.36,93.84 -0.61,136.88l0 0 66.15 60.06c5.03,22.38 29.78,57.43 39.92,80.56 20.02,45.62 24.74,114.64 82.82,128.31 59.81,14.07 79.61,-3.89 117.97,-44.75 47.31,-50.41 28.47,-131.61 54.22,-196.35 23.45,-58.93 90.26,-133.76 147.17,-162.33 72.39,-13.66 36.51,-19.13 97.12,8.36 58.95,26.75 109.44,-49.16 188.88,19.1 63.42,54.48 85.94,50.72 166.23,50.72 69.05,0 164.44,92.65 205.57,10.15 43.42,-87.12 81.21,-140.84 190.06,-140.84 52.33,-8.23 106.88,52.03 163.86,20.29 33.46,-18.63 78.16,-50.05 114.99,-59.08 45.1,-11.07 52.33,-110.47 58.39,-150.4 9.95,-65.47 -35.75,-106.84 -40.51,-169.48 17.86,-69.92 9.53,-170.32 9.53,-244.69 0,-103.56 -78.05,-144.95 -78.05,-247.07 20.66,-24.63 28.48,-75.02 51.83,-106.23 97.28,-129.97 221.71,-233.67 296.13,-383.14l53.03 -166.5c23.88,-74.99 -11.06,-262.77 78.65,-290.64 89.83,-27.9 222.74,48.8 286.59,-54.31 28.36,-22.45 28.86,-48.24 69.71,-64.45 70.57,-28.02 69.58,-91.8 124.53,-139.65 54.62,-47.58 91.58,-2.37 143.6,-48.34 27.8,-24.58 44.75,32.23 78.64,32.23 59.48,0 54.09,-58.81 137.64,-29.84 71.58,24.81 103.85,69.43 185.9,75.79 9.26,-7.79 29.69,-8.09 42.3,-13.73 28.19,-12.59 27.42,-50.83 66.14,-48.93 95.43,4.69 105.23,-230.53 215.09,-274.53 23.17,-9.27 53.16,-13.84 77.46,-8.35 26.73,6.03 36.23,-11.66 56.6,-24.47 25.2,-15.83 77.82,9.65 97.12,-21.48 12.53,-20.23 -17.93,-63.13 0.6,-99.07 1.92,-0.37 6.55,0.03 7.15,-2.39 20.61,-5.02 39.94,-41.62 68.52,-43.56 26.5,-1.79 121.19,-24.32 123.34,10.74 2.72,44.2 -2.34,74.44 26.21,113.39 18.34,25.03 1.69,51.7 14.9,78.18 18.36,36.83 87.16,67.4 92.35,93.1 12.69,62.9 8.62,76.48 59.59,127.11 29.89,12.57 52.71,63.44 80.43,83.55 6.3,23.3 70.27,80.67 90.57,97.88 61.6,52.2 115.87,64.94 194.83,42.37 63.9,-18.27 108.46,-74 176.96,-74l0 1037.28 1042.67 37.54 743.61 -771.06 26.22 -267.36 213.91 24.47c83.44,9.53 74.77,-0.41 112.62,65.05 28.21,48.77 214.07,56.67 258.58,36.41 50.86,-23.14 65.29,1.33 103.68,24.46 33.66,20.27 75.23,-42.63 98.31,-57.29l80.24 -45.25c35.79,57.54 87.02,107.15 145.59,63.16 54.36,-40.84 67.85,-52.68 122.74,-10.75 85.16,65.06 129.35,-17.33 188.29,-48.93 51.15,-27.42 76.25,-107.35 116.78,-148.01 29.5,-29.59 62.25,29.14 84.61,-29.84 15.46,-40.78 63.43,-49.82 95.33,-23.87 41.13,33.46 46.51,32.42 100.1,19.1 44.03,-10.94 38.46,19.56 72.7,21.48 35.96,2.02 141.47,-53.02 164.45,-15.51 18.24,29.76 -17.19,76.78 21.45,101.45 58.56,37.4 113.21,35.34 113.21,124.13 0,74.3 11.64,169.49 108.44,181.43 60.8,7.5 108.94,18.98 138.23,77.58 27.11,54.24 10.94,69.48 77.46,82.36 65.87,12.76 84.02,115.94 140.62,155.16 61.66,42.73 118.54,29.54 187.1,40.58 49.39,7.95 83.4,14.28 107.25,62.07 34.87,69.87 143.63,5.97 209.73,5.97 71.74,0 196.27,28.09 265.75,17.9 101.45,-14.87 244.6,-45.96 319.37,33.42 53.18,56.46 99.97,205.42 143,268.56 43.41,63.7 110.7,88.21 194.24,91.9 80.13,3.54 253.33,-3.22 329.1,15.66l0 0c-2.51,-8.69 -4.8,-18.76 -7.35,-31.17 -17.17,-83.62 -102.74,-130.4 -96.52,-219.62 4.55,-65.29 47.2,-101.15 20.26,-167.1 -29.34,-71.83 23.26,-128.4 11.91,-214.85 -9.83,-74.89 22.73,-92.54 19.07,-157.55 -2.86,-50.98 45.22,-80.85 65.54,-121.74 59.89,-120.45 -104.3,-104.29 -145.38,-174.27 -33.9,-57.75 71.79,-124.08 33.36,-186.2 -42.22,-68.23 18.37,-165.88 21.45,-250.65 1.92,-52.84 26.48,-106.36 71.51,-138.45 40.13,-28.59 74.1,-79.17 83.41,-127.72 20.51,-106.9 -38.86,-192.43 -83.41,-281.68 -22.59,-45.28 -24.48,-80.77 -27.62,-117.48 4.1,-1.31 5.32,-1.03 7.88,-3.07 77.38,0 138.3,-3.79 218.08,12.53 109.43,22.4 189.98,82.63 310.42,64.45 87.41,-28.19 266.13,-50.08 354.52,-22.68 54.68,16.94 89.4,56.54 142.4,72.22 64.97,19.21 158.7,13.01 226.42,9.55 127.86,11.8 253.18,4.87 381.33,-10.15 133.73,-15.68 241.45,30.88 376.56,13.13 9.3,0 23.69,-3.16 32.17,-1.19l207.35 -29.25c68.6,-9.68 142.7,-24.49 209.73,-42.37l0 0z"/>
  <path class="fil0 str0" d="M16671.58 1270.04l-165.04 -270.04 0 0 2290.97 0 0 641.84 0 0 -359.74 -90.71c-97.91,-15.39 -195.15,-13.44 -265.75,60.87 -62.52,65.82 -22.01,132.22 -54.82,181.43 -24.43,36.66 -376.56,-49.46 -438.53,-56.1 -94.22,-10.09 -280.7,8.88 -359.89,-26.26 -40.21,-17.85 17.28,-99.06 -10.72,-109.81 -100.27,-38.48 -236.4,-17.45 -345.59,-63.26l-290.89 -267.96 0 0z"/>
  <path class="fil2 str0" d="M14238.49 3395.35c7.56,26.07 17.26,39.81 42.7,67.89 29.53,32.61 27,97.6 39.33,139.65 9.94,33.9 55.34,31.7 55.34,69.83 0,23.59 -0.74,60.2 11.32,80.56 18.7,31.57 65.64,16 60.18,64.46 -1.85,16.48 -16,30.96 -17.88,47.74 -2.63,23.46 -8,46.3 -3.57,69.83 9.42,49.97 1.98,110.24 34.56,153.97 14.87,19.96 33.59,51.55 14.89,73.4 -16.94,19.79 -48.72,53.79 -35.75,82.96 10.35,23.27 74.97,9.86 102.49,33.42 25.41,21.75 28.75,59.41 11.32,84.14 -44.66,63.37 42.74,103.23 67.32,136.07 16.22,21.68 24.66,74.8 2.98,94.89 -22.35,20.71 -39.3,61.2 -17.28,88.92 41.03,51.65 80.44,-13.14 64.35,84.15 -6.08,36.75 27.44,73.95 35.16,117.57 13.74,77.58 55.29,56.3 108.44,82.95 38.09,19.1 41.67,51.56 49.45,88.92 12.9,61.89 35.4,115.16 63.76,171.88 42.12,84.26 -70.05,59.33 -56.61,137.86 8.99,52.57 30.39,125.95 30.39,179.63 0,60.37 -29.13,38.1 -45.88,71.62 -20.35,40.71 -36.18,8.79 -54.82,35.8 -38.13,55.24 20.95,84.75 -73.28,84.75 -53.92,0 -38.59,89.08 -37.54,129.5 0.59,22.62 4.11,41.68 20.26,63.26 22.95,30.68 63.5,37.25 65.54,83.55 2.37,53.73 -13.06,121.88 16.68,170.68 17.76,29.15 10.03,53.49 22.64,80.57 12.98,27.87 22.4,64.61 22.05,97.87 -0.28,26.61 32.83,25.08 37.54,42.97 8.31,31.57 -0.54,93.73 -2.39,127.72 -1.45,26.77 -53.22,35.58 -39.92,55.5 26.73,40.01 88.09,58.79 76.27,119.95 -3.95,20.49 -20.44,36.16 -26.22,56.1 -7.76,26.76 14.72,59.22 5.37,84.75 -32.09,87.61 -3.51,164.14 29.19,241.1 27.5,64.71 9.23,53.82 -12.51,108.61 -17.33,43.69 -30.46,87.24 -15.49,134.28 0.7,2.2 3.72,3.66 3.57,5.97 -1.54,23.62 0.42,103.4 -0.59,121.15 -1.62,28.5 -17.37,65.01 1.19,91.9 41.34,59.9 7.12,70.08 16.68,130.1 9.6,60.27 40.62,97.18 60.18,152.78 27.61,78.48 -2.74,161.27 13.7,239.32 17.62,83.65 -15.59,160.28 -11.91,247.66 2.95,70.09 34.94,82.64 64.35,138.46 20.11,38.17 20.98,66.06 57.79,93.69 53.49,40.16 32.25,76.09 53.63,130.1 25.32,63.97 39.99,111.83 98.31,151.59 57.52,39.21 38.19,69.22 64.94,127.71 44.37,96.99 95.01,98.51 178.16,142.64 70.81,37.58 60.69,126.24 57.79,198.13 -1.9,47.12 16.09,93.57 16.09,142.04 0,29.48 0.67,56.72 5.78,81.46 7.99,38.61 26.87,71.23 71.08,96.98 69.59,40.55 111.46,104.52 196.62,124.73 2.47,0.58 4.94,-0.35 8.94,1.19 27.04,10.42 95.93,64.78 115.59,88.32 62.44,74.77 13.66,120.61 39.92,199.93 26.44,79.86 88.99,142.62 136.45,211.26 41.41,59.89 23.92,94.06 50.05,149.2 41.27,87.08 97.2,132.7 176.96,182.02 38.24,23.64 39.87,83.48 80.43,92.5 56.74,12.62 83.03,13.01 120.36,60.28 20.11,25.46 23.05,49.89 21.45,82.95 -1.22,25.35 -1.62,43.7 4.77,68.63 8.36,32.6 33.99,49.84 39.92,87.13 6.14,38.6 5.02,72.57 -2.39,110.41 -8.91,45.51 -40.51,71.77 -40.51,123.54 0,7.66 0.66,15.82 1.7,24.31 7.35,59.5 34.58,136.44 -1.11,185.16 -20.34,27.75 -30.26,63.15 -22.04,96.68 7.98,32.57 50.97,45.12 36.34,88.32 -7.88,23.27 -19.04,57.31 -45.28,68.04 -46.71,19.12 -14.91,101.11 -5.36,138.45 8.88,34.73 18.09,107.48 -11.32,134.88 -24.29,22.63 -61.42,-34.07 -90.57,-25.07 -24.49,7.56 -6.12,48.05 -11.32,65.05 -10.93,35.71 -57.15,-20.9 -81.63,3.58 -18.29,18.29 -21.29,72.31 -21.45,99.07 -0.29,46.56 -5.54,97.23 5.37,148.6 6.39,30.11 14.02,68.7 -13.71,89.52 -57.2,42.94 23.24,81.75 23.24,131.89 0,25.13 -88.41,66.2 -39.33,106.23 14.58,11.89 22.41,55.09 42.31,71.02 52.93,42.37 63.61,-19.95 48.86,79.97 -8.33,56.48 7.96,38.22 -42.31,65.05 -66.62,35.56 34.16,95.31 60.78,116.37 50.18,39.71 58.29,101.47 39.92,161.14 -16.11,52.32 -12.5,71.65 -1.79,124.13 12.45,61.01 -13.67,116.84 -9.53,179.04 1.11,16.82 3.17,32.4 5.92,47.2 9.85,52.88 17.63,101.12 47.1,151.53 15.66,26.79 29.09,119.07 39.92,151.58 12.67,38.05 32.51,63.14 49.46,97.28 25.81,51.97 30.85,110.2 73.88,153.37 43.82,43.96 61.71,80.97 82.82,138.46 9.31,25.37 13.61,54.85 32.77,79.97 37.8,49.54 74.77,60.92 132.28,81.76 69.6,25.23 111.25,88.82 49.45,147.41 -87.12,82.59 -28.81,103.15 10.72,189.18 16.69,36.33 50.66,80.21 73.89,115.18 67.43,101.48 199.78,210.31 210.32,339.57 2.88,35.41 10.23,72.56 30.99,102.65 39.79,57.64 14.4,127.71 33.96,191.57 22.84,74.54 72.13,102.21 5.96,180.23 -2.61,3.08 -4.97,3.2 -7.15,5.97 -33.05,41.94 -11.92,54.1 -11.92,99.66 0,76.38 10.43,111.61 32.18,182.62 20.68,67.51 0.15,136.98 42.3,204.1 18.85,30.02 17.52,68.45 36.94,101.46 30.72,52.21 53.26,84.54 60.78,146.21 7.62,62.52 -7.39,129.11 -2.39,191.57 7.83,97.65 19.28,205.96 22.64,304.36 3.24,94.99 -83.42,129.44 -85.2,222.61 -0.91,47.67 -1.8,92.48 16.68,137.85 12.46,30.6 42.75,54.17 49.46,87.13 20.07,98.51 -55.53,188.71 -56.61,282.88 -0.03,2.61 -3.83,4.69 -2.98,7.16 19.91,57.31 -45.22,93.58 -26.81,149.2 11.72,35.42 4.73,116.42 3.58,154.57 -1.8,59.46 -3.45,128.86 -7.75,187.39 -6.64,90.43 -13.97,225.08 -56.01,306.75 -19.88,38.63 -50.03,58.19 -75.67,90.12 -39.53,49.21 -49.29,61.23 -54.22,122.94 -2.45,30.72 27.14,17.39 37.54,37 9.12,17.19 -4.62,41.12 0,60.87 9.18,39.19 35.75,19 31.58,74.6 -2.05,27.47 -18.93,50.34 -25.03,76.39 -10.61,45.29 -3.02,81.9 -26.21,125.92 -25.67,48.72 -53.05,106.81 -51.24,161.73 1.25,37.98 20.18,68.06 8.34,103.84 -19.99,60.38 19.34,123.05 5.96,188.59 -13.19,64.61 -55.14,104.25 -64.95,175.46 -12.87,93.48 -82.62,162.23 -70.31,263.18 5.23,42.86 22.26,115.75 2.39,155.76 -25.4,51.14 -52.44,33.46 -52.44,106.23 0,39.26 32.77,65.07 5.37,105.63 -25.88,38.31 -48.21,79.94 -11.92,122.34 16.66,19.46 18.66,47.91 8.94,69.23 -7.78,17.08 -10.52,38.55 -17.53,57.15l0 0 -6402.66 1.34 0 800.89 208.09 0 -2.9 6840.81 0 0c-50.58,-40.47 -99.03,-84.13 -157.97,-64.86 -49.2,16.08 -49.57,-40.04 -87,-52.51 -55.15,-18.37 -93.53,73.29 -154.91,7.16 -77.47,-83.47 -96.6,11.06 -183.52,25.06 -40.11,6.46 -220.54,-136.09 -231.19,-179.03 -14.33,-57.74 -17.4,-77.11 -70.31,-120.55 -61.75,-50.69 -33.8,-120.57 -64.35,-176.65 -41.87,-76.86 -64.7,-31.76 -128.7,-22.68 -37.69,5.34 -44.89,-47.75 -85.8,-47.75 -42.72,0 -112.53,74.72 -150.15,33.42 -41.44,-45.51 -97.21,-128.39 -168.03,-75.19 -48.05,36.09 -262.07,27.21 -278.85,-38.2 -20.74,-80.81 7.43,-53.16 -42.9,-128.9 -49.76,-74.89 -29.95,-81.67 -128.7,-106.23 -67.2,-16.71 -40.22,-105.24 -169.22,-66.84 -78.03,23.22 -51.47,108.4 -138.23,97.87 -101.79,-12.36 -73.76,32.09 -148.96,50.13 -29.72,7.12 -56.92,-48.95 -85.81,-62.06 -68.06,-30.89 -68.99,-28.06 -143,-32.23 -28.84,-1.62 -47.67,-37.79 -73.88,-47.74 -45.2,-17.17 -71.18,21.48 -113.21,21.48 -53.75,0 -78.62,-38.43 -139.43,-26.26 -57.37,11.48 -67.51,-29.16 -92.95,-70.42 -22.94,-37.21 -57.73,-93.81 -67.92,-134.87 -15.86,-63.89 8.11,-109 -10.73,-182.62 -17.05,-66.64 69.24,-89.76 38.14,-165.91 -22.75,-55.7 -80.34,-98.57 -104.87,-153.97 -17.71,-40.01 -85.67,-1.26 -103.68,-26.26 -66.37,-92.16 -48.42,-0.78 -138.23,-69.23 -63.16,-48.13 -126.32,-96.29 -189.48,-144.42 -56.61,-43.14 -90.64,-16.26 -141.81,-4.77 -138.02,30.98 -117.58,-185.75 -350.35,-99.07 -103.74,38.63 -155.76,21.55 -247.87,32.22 -60.48,7 -87.31,71.62 -133.47,71.62 -46.88,0 -66.73,-47.81 -101.29,-69.23 -85.75,-53.16 -138.53,108.32 -253.83,57.29 -64.81,-28.68 -113.52,20.23 -148.96,3.58 -24.51,-11.51 -38.49,-37.32 -64.35,-48.93 -30.5,-13.69 -54.6,31.37 -79.84,13.13 -30.44,-21.99 -33.31,-68.67 -72.69,-84.75 -49.37,-20.16 -68.36,11.44 -114.41,-34.61 -67.37,-67.37 -190.35,-144.55 -264.55,-183.81 -26.75,-14.15 -59.64,11.05 -89.37,-9.55 -40.66,-28.18 -55.76,-68.62 -90.57,-99.07 -50.18,-43.9 -103.19,-87.47 -90.57,-165.91 9.79,-60.86 -26.58,-99.9 -17.87,-148 5.96,-32.9 17.58,-70.59 -4.77,-97.87 -25.89,-31.61 -34.07,-79.07 -39.33,-132.49 -7.33,-74.52 17.92,-161.62 -1.19,-242.3 -11.25,-47.47 -4.94,-88.82 40.52,-121.74 31.24,-22.63 44.09,-45.35 44.09,-84.75 0,-22.98 -3.24,-41.59 -8.99,-58.2 -81.31,-27.81 -153.88,-91.83 -219.81,-129.19 -51.61,-29.24 -113.74,-19.07 -156.11,-58.48 -59.45,-55.28 -214.65,-197.25 -219.27,-279.3 -4.24,-75.23 48.32,-119.12 -48.86,-159.94 -71.51,-30.03 -101.03,-201.52 -169.22,-269.75 -57.26,-19.08 -132.14,-30.03 -173.98,-75.2 -33.11,-35.76 -40.08,-76 -85.8,-100.26 -123.61,-65.62 -79,-156.33 -163.26,-226.78 -46.18,-38.6 -105.54,-69.23 -145.39,-115.78 -20.05,-23.41 -81.24,-151.47 -79.84,-177.84 1.32,-24.97 -20.69,-69.56 -47.67,-74 -5.09,-25.71 11.87,-83.98 8.35,-93.1 -8.53,-22.04 -56.89,19.63 -77.46,11.94 0.59,-2.39 -39.45,-51.97 -47.67,-58.49 -31.91,-51.07 -18.6,-110.15 -51.24,-150.39 -34.79,-42.91 -50.17,-57.15 -13.11,-108.62 57.89,-80.37 -60.78,-149.04 -60.78,-244.68 0,-48.93 -23.45,-119.62 -15.49,-158.75 2.37,-11.64 16.17,-82.53 2.38,-85.93 -7.44,-30.15 -134.02,-58.46 -160.87,-66.84 -61.18,-19.1 -106.65,70.48 -154.92,100.26 -148.67,91.75 -217.29,-123.76 -263.36,-216.04 -43.81,-70.27 -87.38,-110.37 -82.23,-199.33 3.33,-57.45 19.11,-111.53 -16.68,-163.52 -86.3,-125.32 33.21,-201.95 7.15,-337.78 -13.84,-72.11 -24.08,-151.73 -60.78,-216.04l-82.07 -47.74 0 0 59.58 -158.75c15.1,-40.24 73.39,-24.06 106.66,-39.39 14.27,-6.58 55.72,-45.82 56.6,-62.07 1.18,-21.61 -30.96,-65.86 -36.34,-94.29 -4.19,-22.13 -4,-137.15 -10.13,-139.65 -29.39,-11.96 -47.44,-16.29 -76.27,-32.22 -31.06,-31.19 -112.84,-72.04 -39.32,-121.15 57.72,-38.57 73.37,-21.04 107.24,-88.92 10.08,-20.22 51.84,-54.04 51.84,-72.22 -47.42,-11.65 -150.94,14 -182.32,-25.06 -51.86,-64.58 -12.62,-132.36 1.79,-198.13 33.16,-73.72 69.08,-41.67 122.14,-44.76 61.65,-3.58 -7.16,-122.22 67.33,-113.99 58.42,6.46 73.7,-7.47 112.01,-47.74 19.17,-20.16 89.64,-78.53 76.87,-107.43 -15.95,-36.13 -81.01,-76.64 -117.38,-69.22 -43.87,8.96 -74.82,13.03 -97.12,-34.02 -28.17,-59.4 7.46,-79.78 8.94,-130.1 25.31,-20.82 50.61,-46.47 48.85,-80.57 -1.28,-24.93 -36.87,-41.96 -42.9,-69.23 -4.72,-21.34 1.5,-44.63 -4.76,-65.05 -7.25,-23.69 -14.4,-46.02 -15.49,-71.01 -2.05,-47.22 -29.38,-49.54 -69.72,-61.47 -72.68,-21.48 -21.83,-86.22 -44.68,-128.91 2.35,-12.08 -59.7,-77.58 -64.35,-102.05 -8.43,-44.39 29.72,-49.01 59.58,-69.23 61.13,-41.42 88.26,-93.63 47.07,-159.34 -29.83,-47.57 -49.38,-91.25 -70.9,-142.63 0,-36.87 -16.3,-138.71 1.78,-164.12 11.51,-1.44 31.58,-1.74 42.31,-5.37 15.44,-5.21 17.78,-19.14 30.39,-25.66 22.6,-11.7 58.71,5.2 72.69,-13.13 -13.65,-31.71 -49.8,-48.38 -67.33,-79.97 -32.26,-58.17 -31.37,-24.41 -90.57,-44.17 -34.52,-11.53 -47.56,-37.81 -66.13,-66.24 -47.29,-47.09 -73.5,-115.77 -14.3,-163.52 42.6,-34.35 -89.73,-52.77 -60.18,-106.23 16.13,-29.17 61.31,-29.71 28,-68.63 -45.57,-53.23 -45.87,-61.14 13.11,-90.71 18.48,-9.27 24.53,-28.82 37.54,-42.37 23.72,-32.49 74.02,-100.13 44.68,-142.64 -32.8,-47.5 -59.74,-43.71 -67.92,-108.61 -18.61,-13.33 -100.45,-26.26 -125.72,-26.26 -42.54,0 -115.87,43.95 -144.19,0 -50,-77.61 -250.25,-34.56 -250.25,-130.7l-5.36 -4.77c-24.53,-97.58 -62.02,-113 8.94,-202.91 39.86,-50.52 -5.79,-114.44 51.24,-149.8 28.58,-17.71 60.12,-11.44 82.82,-41.77 52.21,-69.78 53.09,1.79 117.97,1.79 26.64,0 68.13,-3.65 89.97,-20.29 44.06,-11.08 158.06,-16.29 186.5,-42.97 41.84,-39.27 80.59,-27.39 120.35,-70.42 31.32,-33.91 17.13,-51.66 67.93,-26.26 68.61,34.29 53.19,-74.07 63.16,-112.2 7.6,-29.11 30.56,-52.08 14.89,-81.76 -20.07,-37.99 -0.43,-70.22 -10.13,-98.47 12.06,-16.84 48.82,-53.06 37.54,-75.79 -12.13,-24.46 -51.55,-26.84 -66.73,-54.31 -14.01,-25.33 -13.55,-162.36 10.72,-183.21 44.56,-38.27 49.54,-81.42 42.9,-139.65 -3.51,-30.74 11.73,-41.53 19.66,-66.25 53.3,-43.99 113.58,-69.37 98.31,-146.21 -6.06,-30.47 -30.88,-156.63 6.56,-162.33 53.3,-8.11 55.58,-58.51 75.07,-100.85 14.67,-31.89 32.37,-38.21 53.03,-62.67 22.74,-26.91 15.85,-47.01 28.6,-73.4 60.3,-43.94 47.44,-45.13 32.18,-110.41 -14.21,-60.75 38.62,-79.05 56,-128.31 9.46,-26.79 12.61,-60.69 17.28,-88.92 6.36,-38.48 32.87,-71.8 39.92,-108.02 -6.46,-8.74 -99.89,1.92 -125.72,-13.13 -39.35,-22.91 -66.59,-55.06 -91.16,-91.31 -3.96,-48.91 -11.6,-84.4 25.62,-121.74 29.69,-29.8 70,-16.04 106.06,-28.05 100.23,-33.41 57.4,-198.29 129.89,-210.07 91.54,-14.87 67.29,-51.58 78.65,-116.38 6.63,-105.33 -30.3,-249.89 55.41,-329.42 27.67,-25.68 42.25,-35.6 44.09,-77.59 1.34,-30.8 82.89,-23.95 92.95,-82.95 32.61,-98.12 134.57,-192.23 150.15,-297.2 4.35,-29.29 -5.93,-96.25 26.81,-111.6 41.08,-19.25 74.66,46.44 113.81,25.66 30.75,-16.31 97.83,-83.45 108.44,-116.37 38.22,-35.21 69.08,-66.69 61.37,-118.76 -8.69,-58.73 53.64,-60.91 94.14,-74.6 113.95,-38.54 27.73,-148.6 5.96,-219.62 -8.51,-27.75 11.24,-42.94 11.91,-65.05 54.47,-109.4 -17.72,-176.67 -36.34,-280.49 -10.12,-56.41 92.18,-131.55 134.65,-152.78 57.67,-28.83 103.56,-38.92 159.09,2.98 44.06,33.23 124.74,162.86 190.07,130.1 43.3,-21.72 16.88,-90.49 51.24,-117.57 24.16,-19.03 86.57,18.44 120.95,-19.09 43.48,-19.05 98.48,-48.94 144.79,-48.94 57.89,0 83.67,-33.28 93.54,-88.32 14.41,-80.28 -4.09,-205.15 -69.11,-257.22 -23.39,-18.74 -48.17,-60.37 -69.71,-72.21 -39.71,-42.32 -120.03,-98.45 -145.39,-146.81 -23.93,-45.65 61.87,-51.63 58.99,-107.43 -2.2,-42.59 18.86,-45.35 53.63,-54.3 30.97,-7.96 48.9,-84.9 45.28,-111.01 -20.83,-11.82 -46.61,-7.59 -65.54,-25.06 -24.64,-22.72 -4.98,-37.8 -10.73,-60.87 32.42,-35.14 56.15,-86.55 82.23,-126.52 28.48,-43.67 37.94,-54.75 -13.71,-76.39 -29.64,-12.41 -38.98,-36.34 -50.64,-65.65 -14.67,-36.91 -23.6,-90.34 -25.62,-129.5 -2.26,-43.65 -82.16,-22.6 -94.74,13.72 -11.33,32.69 -30.4,38.72 -55.41,15.52 -18.99,-17.63 -56.9,-55.58 -45.88,-84.15 4.2,-54.3 36.52,-116.47 60.18,-164.11 24.01,-48.33 81.82,-71.79 112.61,-116.38 19.19,-27.81 -19.36,-58.44 -29.79,-85.94 -15.41,-40.65 -87.12,-50.48 -94.14,-100.85l-6.56 -2.99c-13.56,-50.55 -4.19,-108.93 -7.74,-160.53 -3.1,-44.98 10.17,-107.04 -5.96,-147.41 -13.3,-33.32 -31.72,-67.98 -13.7,-102.65l59.58 -114.58c44.06,-66.28 100.79,-106 58.39,-190.98 -28.84,-57.82 -93.92,-124.39 -42.3,-193.36 23.23,-31.05 20.87,-84.87 14.3,-122.34 -10.28,-41.18 -16.98,-90.59 0,-130.7 14.62,-34.51 37.53,-55.98 37.53,-96.68 0,-52 -17.89,-181.88 11.32,-223.19 28.39,-40.13 65.21,-37.82 89.97,-90.72 22.22,-35.99 38.34,-70.82 32.77,-113.98 -5.03,-39.06 8.74,-65.07 43.5,-82.96 55.48,-28.57 -29.65,-168.19 11.92,-190.97 39.94,-21.88 79.19,-5.49 59.58,-72.21 0,-33.95 -56.85,-77.48 -47.07,-103.25 9.81,-25.83 82.53,8.5 104.27,-6.56 38.36,-26.56 57.48,-148.4 59.58,-191.57 2.12,-43.7 -35.88,-104.48 -48.26,-148.6 -25.97,-46.89 -29.62,-132.49 -101.29,-132.49 -72.13,0 -103.52,-97.94 -158.49,-42.97 -47.89,47.89 -73.25,11.01 -119.17,-6.56 -82.6,-31.6 -87.86,-32.33 -109.03,-119.96 -2.71,-0.65 -2.25,-0.03 -4.77,0.6 -5.31,36.86 -44.04,107.66 -80.44,122.94 -82.09,36.14 -101.28,142.15 -180.53,172.47 -107.81,41.26 -113.81,-18.64 -113.81,-108.62 0,-85.11 -84.7,-34.01 -97.71,-89.51 -5.35,-22.81 17.63,-63.21 3.57,-79.97 4.74,-56.67 44.43,-117.57 -47.07,-117.57 -71.57,0 -72.68,-164.49 -74.48,-211.27 -1.65,-42.98 12.95,-87.55 4.77,-130.1 4.76,-52.12 105.23,-99.16 15.49,-133.68 -88.33,-33.99 -48.13,-105.74 -26.21,-169.48 10.68,-31.08 -14.44,-96.25 -33.97,-121.15 -19.9,-40.32 -63.65,-28.89 -54.22,-87.13 6.38,-39.36 30.59,-78.37 72.69,-85.35 111.18,-18.44 181.14,-4.78 181.14,-147.4 0,-69.38 -16.35,-100.01 11.91,-165.31 29.26,-29.38 103.66,-36.12 83.42,-84.75 -25.17,-60.5 -53.07,-72.86 7.15,-133.08 108.26,-108.26 -137.56,-158.23 -181.13,-190.97 -28.6,-21.5 -22.31,-48.92 -33.37,-77.59 0,-60.18 0.5,-114.65 -67.33,-127.71 -87.37,-16.81 -54.47,-84.04 -120.95,-113.39 -36.78,-16.24 -8.87,-88.67 -36.94,-112.79 -8.23,-7.06 -46.17,-38.33 -45.29,-48.34 -16.03,-18.12 -20,-53.58 -28.6,-75.8 -24.08,-66.94 -83.7,-117.66 -74.47,-193.36 8.11,-66.45 13.7,-128.73 13.7,-196.34 0,-34.19 -21.45,-67.22 -21.45,-99.07 -15.92,-63.34 -77.54,-76.93 -60.18,-150.99 11.7,-49.9 45.72,-72.28 68.52,-113.39 19.65,-35.41 17.15,-26.96 47.07,-44.75 29.13,10.77 42.87,-4.99 48.85,-30.82l0 0 66.15 60.06c5.03,22.38 29.78,57.43 39.92,80.56 20.02,45.62 24.74,114.64 82.82,128.31 59.81,14.07 79.61,-3.89 117.97,-44.75 47.31,-50.41 28.47,-131.61 54.22,-196.35 23.45,-58.93 90.26,-133.76 147.17,-162.33 72.39,-13.66 36.51,-19.13 97.12,8.36 58.95,26.75 109.44,-49.16 188.88,19.1 63.42,54.48 85.94,50.72 166.23,50.72 69.05,0 164.44,92.65 205.57,10.15 43.42,-87.12 81.21,-140.84 190.06,-140.84 52.33,-8.23 106.88,52.03 163.86,20.29 33.46,-18.63 78.16,-50.05 114.99,-59.08 45.1,-11.07 52.33,-110.47 58.39,-150.4 9.95,-65.47 -35.75,-106.84 -40.51,-169.48 17.86,-69.92 9.53,-170.32 9.53,-244.69 0,-103.56 -78.05,-144.95 -78.05,-247.07 20.66,-24.63 28.48,-75.02 51.83,-106.23 97.28,-129.97 221.71,-233.67 296.13,-383.14l53.03 -166.5c23.88,-74.99 -11.06,-262.77 78.65,-290.64 89.83,-27.9 222.74,48.8 286.59,-54.31 28.36,-22.45 28.86,-48.24 69.71,-64.45 70.57,-28.02 69.58,-91.8 124.53,-139.65 54.62,-47.58 91.58,-2.37 143.6,-48.34 27.8,-24.58 44.75,32.23 78.64,32.23 59.48,0 54.09,-58.81 137.64,-29.84 71.58,24.81 103.85,69.43 185.9,75.79 9.26,-7.79 29.69,-8.09 42.3,-13.73 28.19,-12.59 27.42,-50.83 66.14,-48.93 95.43,4.69 105.23,-230.53 215.09,-274.53 23.17,-9.27 53.16,-13.84 77.46,-8.35 26.73,6.03 36.23,-11.66 56.6,-24.47 25.2,-15.83 77.82,9.65 97.12,-21.48 12.53,-20.23 -17.93,-63.13 0.6,-99.07 1.92,-0.37 6.55,0.03 7.15,-2.39 20.61,-5.02 39.94,-41.62 68.52,-43.56 26.5,-1.79 121.19,-24.32 123.34,10.74 2.72,44.2 -2.34,74.44 26.21,113.39 18.34,25.03 1.69,51.7 14.9,78.18 18.36,36.83 87.16,67.4 92.35,93.1 12.69,62.9 8.62,76.48 59.59,127.11 29.89,12.57 52.71,63.44 80.43,83.55 6.3,23.3 70.27,80.67 90.57,97.88 61.6,52.2 115.87,64.94 194.83,42.37 63.9,-18.27 108.46,-74 176.96,-74l0 1037.28 1042.67 37.54 743.61 -771.06 26.22 -267.36 213.91 24.47c83.44,9.53 74.77,-0.41 112.62,65.05 28.21,48.77 214.07,56.67 258.58,36.41 50.86,-23.14 65.29,1.33 103.68,24.46 33.66,20.27 75.23,-42.63 98.31,-57.29l80.24 -45.25c35.79,57.54 87.02,107.15 145.59,63.16 54.36,-40.84 67.85,-52.68 122.74,-10.75 85.16,65.06 129.35,-17.33 188.29,-48.93 51.15,-27.42 76.25,-107.35 116.78,-148.01 29.5,-29.59 62.25,29.14 84.61,-29.84 15.46,-40.78 63.43,-49.82 95.33,-23.87 41.13,33.46 46.51,32.42 100.1,19.1 44.03,-10.94 38.46,19.56 72.7,21.48 35.96,2.02 141.47,-53.02 164.45,-15.51 18.24,29.76 -17.19,76.78 21.45,101.45 58.56,37.4 113.21,35.34 113.21,124.13 0,74.3 11.64,169.49 108.44,181.43 60.8,7.5 108.94,18.98 138.23,77.58 27.11,54.24 10.94,69.48 77.46,82.36 65.87,12.76 84.02,115.94 140.62,155.16 61.66,42.73 118.54,29.54 187.1,40.58 49.39,7.95 83.4,14.28 107.25,62.07 34.87,69.87 143.63,5.97 209.73,5.97 71.74,0 196.27,28.09 265.75,17.9 101.45,-14.87 244.6,-45.96 319.37,33.42 53.18,56.46 99.97,205.42 143,268.56 43.41,63.7 110.7,88.21 194.24,91.9 80.13,3.54 253.33,-3.22 329.1,15.66l0 0z"/>
  <path class="fil3 str1" d="M15131.58 26876.66l3070.31 0 0 1592.9 -3070.31 0 0 -1592.9z"/>
  <path class="fil4" d="M16378.85 27043.17l0 6.7c-15.12,1.47 -27.46,4.47 -37.05,9 -9.58,4.53 -19.05,11.41 -28.34,20.7 -9.35,9.23 -17.11,19.58 -23.22,30.92 -6.12,11.41 -11.23,24.93 -15.35,40.57 16.47,-11.23 32.99,-16.87 49.63,-16.87 15.93,0 29.69,6.41 41.39,19.28 11.7,12.82 17.52,29.34 17.52,49.51 0,19.46 -5.88,37.28 -17.7,53.33 -14.23,19.46 -33.04,29.22 -56.44,29.22 -15.93,0 -29.52,-5.29 -40.63,-15.82 -21.81,-20.57 -32.69,-47.21 -32.69,-79.9 0,-20.87 4.17,-40.75 12.58,-59.56 8.35,-18.82 20.35,-35.51 35.87,-50.1 15.58,-14.52 30.45,-24.34 44.68,-29.39 14.23,-5.06 27.46,-7.59 39.75,-7.59l10 0zm-106.9 120.48c-2.11,15.52 -3.17,28.04 -3.17,37.57 0,11.05 2.06,22.99 6.11,35.92 4.06,12.94 10.12,23.17 18.11,30.75 5.82,5.41 12.94,8.12 21.29,8.12 9.93,0 18.87,-4.71 26.69,-14.12 7.82,-9.46 11.76,-22.87 11.76,-40.33 0,-19.64 -3.88,-36.63 -11.64,-51.04 -7.82,-14.34 -18.82,-21.52 -33.1,-21.52 -4.36,0 -9.06,0.95 -14,2.77 -5,1.82 -12.35,5.82 -22.05,11.88z"/>
  <path id="1" class="fil4" d="M16409.89 27166.06c0,-26.64 4,-49.51 12.05,-68.74 8.06,-19.22 18.7,-33.57 32.05,-42.98 10.29,-7.47 20.99,-11.17 31.98,-11.17 17.94,0 33.99,9.11 48.22,27.34 17.81,22.64 26.69,53.27 26.69,91.96 0,27.05 -3.88,50.09 -11.7,69.03 -7.82,18.93 -17.76,32.63 -29.87,41.21 -12.11,8.53 -23.81,12.82 -35.04,12.82 -22.29,0 -40.81,-13.11 -55.62,-39.39 -12.53,-22.17 -18.76,-48.86 -18.76,-80.08zm33.87 4.23c0,32.1 3.94,58.33 11.82,78.67 6.52,17.11 16.28,25.63 29.22,25.63 6.17,0 12.58,-2.76 19.22,-8.34 6.65,-5.59 11.65,-14.88 15.11,-27.99 5.24,-19.7 7.88,-47.57 7.88,-83.43 0,-26.64 -2.76,-48.86 -8.23,-66.62 -4.11,-13.23 -9.46,-22.58 -15.99,-28.05 -4.65,-3.82 -10.35,-5.7 -16.99,-5.7 -7.76,0 -14.7,3.53 -20.76,10.52 -8.23,9.53 -13.87,24.46 -16.81,44.92 -3,20.41 -4.47,40.52 -4.47,60.39z"/>
  <path id="2" class="fil4" d="M16719.64 27036.47l0 157.16 39.98 -36.63c8.52,-7.82 13.46,-12.76 14.81,-14.82 0.95,-1.41 1.42,-2.76 1.42,-4.17 0,-2.29 -1,-4.23 -2.89,-5.94 -1.88,-1.65 -4.99,-2.59 -9.4,-2.82l0 -5.65 68.61 0 0 5.65c-9.35,0.23 -17.17,1.7 -23.4,4.35 -6.23,2.7 -13.05,7.47 -20.52,14.29l-40.63 37.22 40.34 51.33c11.29,14.05 18.81,23.04 22.58,26.98 5.58,5.24 10.4,8.65 14.58,10.17 2.94,1.12 7.99,1.71 15.17,1.71l0 6.35 -76.73 0 0 -6.35c4.41,-0.12 7.35,-0.76 8.88,-1.94 1.58,-1.24 2.35,-2.88 2.35,-5.06 0,-2.64 -2.3,-6.88 -6.88,-12.7l-48.27 -61.79 0 52.21c0,10.23 0.7,16.93 2.11,20.17 1.47,3.17 3.47,5.46 6.12,6.88 2.64,1.35 8.35,2.11 17.17,2.23l0 6.35 -80.08 0 0 -6.35c7.99,0 14.05,-1 18.05,-2.94 2.41,-1.23 4.23,-3.17 5.46,-5.76 1.71,-3.76 2.59,-10.29 2.59,-19.52l0 -143.94c0,-18.05 -0.41,-29.1 -1.18,-33.16 -0.82,-4.05 -2.11,-6.82 -3.99,-8.35 -1.83,-1.58 -4.24,-2.35 -7.18,-2.35 -2.41,0 -6.05,1 -10.82,2.94l-2.93 -6.35 46.74 -19.4 7.94 0z"/>
  <path id="3" class="fil4" d="M16896.38 27152.77c11.41,-11.53 18.17,-18.17 20.22,-19.93 5.12,-4.36 10.65,-7.77 16.59,-10.18 5.93,-2.41 11.81,-3.64 17.63,-3.64 9.88,0 18.29,2.88 25.4,8.64 7.06,5.76 11.82,14.11 14.17,25.11 11.88,-13.88 21.88,-22.93 30.05,-27.28 8.17,-4.3 16.58,-6.47 25.22,-6.47 8.35,0 15.82,2.17 22.35,6.47 6.46,4.29 11.64,11.34 15.4,21.16 2.53,6.65 3.82,17.11 3.82,31.4l0 67.97c0,9.82 0.71,16.58 2.18,20.23 1.12,2.46 3.23,4.64 6.23,6.4 3.06,1.77 8,2.65 14.88,2.65l0 6.35 -77.26 0 0 -6.35 3.29 0c6.7,0 11.99,-1.29 15.76,-3.94 2.64,-1.82 4.52,-4.76 5.64,-8.76 0.47,-1.94 0.71,-7.47 0.71,-16.58l0 -67.91c0,-12.88 -1.53,-21.93 -4.65,-27.22 -4.52,-7.35 -11.7,-11.06 -21.63,-11.06 -6.06,0 -12.23,1.53 -18.41,4.59 -6.11,3 -13.58,8.7 -22.34,16.93l-0.35 1.94 0.7 7.41 0 75.32c0,10.7 0.59,17.4 1.77,20.05 1.23,2.59 3.46,4.82 6.76,6.58 3.29,1.77 8.93,2.65 16.87,2.65l0 6.35 -79.37 0 0 -6.35c8.64,0 14.58,-1 17.81,-3.06 3.24,-2.06 5.47,-5.17 6.7,-9.29 0.59,-1.94 0.89,-7.58 0.89,-16.93l0 -67.91c0,-12.88 -1.88,-22.17 -5.65,-27.87 -5.05,-7.41 -12.05,-11.11 -21.11,-11.11 -6.17,0 -12.28,1.7 -18.34,5.05 -9.47,5.06 -16.82,10.82 -21.93,17.17l0 84.67c0,10.29 0.7,16.93 2.12,20.05 1.41,3.06 3.52,5.35 6.35,6.94 2.76,1.53 8.4,2.29 16.93,2.29l0 6.35 -77.97 0 0 -6.35c7.24,0 12.29,-0.76 15.17,-2.29 2.89,-1.59 5.06,-4 6.59,-7.41 1.47,-3.35 2.23,-9.88 2.23,-19.58l0 -60.33c0,-17.28 -0.53,-28.45 -1.53,-33.51 -0.82,-3.82 -2.05,-6.41 -3.82,-7.82 -1.7,-1.47 -4.05,-2.18 -6.99,-2.18 -3.24,0 -7.06,0.89 -11.53,2.59l-2.58 -6.35 47.62 -19.4 7.41 0 0 33.75z"/>
  <path class="fil4" d="M16475.49 28165.45l0 24.34 -31.39 0 0 61.74 -28.58 0 0 -61.74 -98.43 0 0 -21.93 107.96 -154.81 19.05 0 0 152.4 31.39 0zm-59.97 0l0 -116.06 -81.61 116.06 81.61 0z"/>
  <path id="1" class="fil4" d="M16500.54 28135.94c0,-26.64 4,-49.51 12.05,-68.74 8.06,-19.22 18.7,-33.57 32.05,-42.98 10.29,-7.47 20.99,-11.17 31.98,-11.17 17.94,0 33.99,9.11 48.22,27.34 17.81,22.64 26.69,53.27 26.69,91.96 0,27.05 -3.88,50.09 -11.7,69.03 -7.82,18.93 -17.76,32.63 -29.87,41.21 -12.11,8.53 -23.81,12.82 -35.04,12.82 -22.29,0 -40.81,-13.11 -55.62,-39.39 -12.53,-22.17 -18.76,-48.86 -18.76,-80.08zm33.87 4.23c0,32.1 3.94,58.33 11.82,78.67 6.52,17.11 16.28,25.63 29.22,25.63 6.17,0 12.58,-2.76 19.22,-8.34 6.65,-5.59 11.65,-14.88 15.11,-27.99 5.24,-19.7 7.88,-47.57 7.88,-83.43 0,-26.64 -2.76,-48.86 -8.23,-66.62 -4.11,-13.23 -9.46,-22.58 -15.99,-28.05 -4.65,-3.82 -10.35,-5.7 -16.99,-5.7 -7.76,0 -14.7,3.53 -20.76,10.52 -8.23,9.53 -13.87,24.46 -16.81,44.92 -3,20.41 -4.47,40.52 -4.47,60.39z"/>
  <path id="2" class="fil4" d="M16810.64 28122.65c11.41,-11.53 18.17,-18.17 20.22,-19.93 5.12,-4.36 10.65,-7.77 16.59,-10.18 5.93,-2.41 11.81,-3.64 17.63,-3.64 9.88,0 18.29,2.88 25.4,8.64 7.06,5.76 11.82,14.11 14.17,25.11 11.88,-13.88 21.88,-22.93 30.05,-27.28 8.17,-4.3 16.58,-6.47 25.22,-6.47 8.35,0 15.82,2.17 22.35,6.47 6.46,4.29 11.64,11.34 15.4,21.16 2.53,6.65 3.82,17.11 3.82,31.4l0 67.97c0,9.82 0.71,16.58 2.18,20.23 1.12,2.46 3.23,4.64 6.23,6.4 3.06,1.77 8,2.65 14.88,2.65l0 6.35 -77.26 0 0 -6.35 3.29 0c6.7,0 11.99,-1.29 15.76,-3.94 2.64,-1.82 4.52,-4.76 5.64,-8.76 0.47,-1.94 0.71,-7.47 0.71,-16.58l0 -67.91c0,-12.88 -1.53,-21.93 -4.65,-27.22 -4.52,-7.35 -11.7,-11.06 -21.63,-11.06 -6.06,0 -12.23,1.53 -18.41,4.59 -6.11,3 -13.58,8.7 -22.34,16.93l-0.35 1.94 0.7 7.41 0 75.32c0,10.7 0.59,17.4 1.77,20.05 1.23,2.59 3.46,4.82 6.76,6.58 3.29,1.77 8.93,2.65 16.87,2.65l0 6.35 -79.37 0 0 -6.35c8.64,0 14.58,-1 17.81,-3.06 3.24,-2.06 5.47,-5.17 6.7,-9.29 0.59,-1.94 0.89,-7.58 0.89,-16.93l0 -67.91c0,-12.88 -1.88,-22.17 -5.65,-27.87 -5.05,-7.41 -12.05,-11.11 -21.11,-11.11 -6.17,0 -12.28,1.7 -18.34,5.05 -9.47,5.06 -16.82,10.82 -21.93,17.17l0 84.67c0,10.29 0.7,16.93 2.12,20.05 1.41,3.06 3.52,5.35 6.35,6.94 2.76,1.53 8.4,2.29 16.93,2.29l0 6.35 -77.97 0 0 -6.35c7.24,0 12.29,-0.76 15.17,-2.29 2.89,-1.59 5.06,-4 6.59,-7.41 1.47,-3.35 2.23,-9.88 2.23,-19.58l0 -60.33c0,-17.28 -0.53,-28.45 -1.53,-33.51 -0.82,-3.82 -2.05,-6.41 -3.82,-7.82 -1.7,-1.47 -4.05,-2.18 -6.99,-2.18 -3.24,0 -7.06,0.89 -11.53,2.59l-2.58 -6.35 47.62 -19.4 7.41 0 0 33.75z"/>
  <path id="3" class="fil4" d="M17078.28 28006.35c4.76,0 8.88,1.7 12.29,5.05 3.35,3.41 5.05,7.53 5.05,12.29 0,4.82 -1.7,9 -5.05,12.41 -3.41,3.47 -7.53,5.17 -12.29,5.17 -4.82,0 -9,-1.7 -12.41,-5.17 -3.47,-3.41 -5.17,-7.59 -5.17,-12.41 0,-4.76 1.7,-8.88 5.05,-12.29 3.41,-3.35 7.59,-5.05 12.53,-5.05zm14.17 82.55l0 127c0,9.82 0.7,16.34 2.17,19.58 1.41,3.29 3.53,5.7 6.35,7.29 2.82,1.59 8,2.41 15.47,2.41l0 6.35 -76.56 0 0 -6.35c7.65,0 12.82,-0.76 15.41,-2.23 2.64,-1.47 4.7,-3.94 6.29,-7.35 1.53,-3.41 2.29,-10 2.29,-19.7l0 -61.03c0,-16.99 -0.53,-27.99 -1.53,-33.05 -0.82,-3.64 -2.05,-6.17 -3.82,-7.58 -1.7,-1.47 -4.06,-2.18 -7,-2.18 -3.23,0 -7.11,0.89 -11.7,2.59l-2.41 -6.35 47.45 -19.4 7.59 0z"/>
  <path class="fil4" d="M18380.62 28376.66c0,-17.45 4.47,-34.48 13.46,-51.13 8.93,-16.61 21.77,-29.59 38.43,-38.86 16.69,-9.26 34.1,-13.92 52.16,-13.92 17.92,0 35.18,4.56 51.69,13.74 16.56,9.12 29.4,21.92 38.53,38.43 9.17,16.51 13.73,33.77 13.73,51.74 0,18.01 -4.56,35.27 -13.73,51.78 -9.13,16.51 -21.97,29.35 -38.53,38.53 -16.51,9.17 -33.77,13.78 -51.69,13.78 -18.06,0 -35.47,-4.66 -52.16,-13.97 -16.66,-9.36 -29.5,-22.34 -38.43,-38.95 -8.99,-16.65 -13.46,-33.68 -13.46,-51.17zm17.22 0c0,14.62 3.76,28.88 11.24,42.7 7.48,13.83 18.2,24.65 32.13,32.46 13.92,7.81 28.41,11.71 43.46,11.71 15,0 29.35,-3.85 43.08,-11.52 13.74,-7.67 24.46,-18.39 32.13,-32.17 7.67,-13.79 11.52,-28.18 11.52,-43.18 0,-14.96 -3.85,-29.36 -11.52,-43.14 -7.67,-13.78 -18.39,-24.5 -32.13,-32.12 -13.73,-7.62 -28.08,-11.43 -43.08,-11.43 -15.05,0 -29.54,3.9 -43.46,11.66 -13.93,7.76 -24.65,18.58 -32.13,32.46 -7.48,13.87 -11.24,28.08 -11.24,42.57zm103.57 -33.35l5.08 -16.94c11.53,2.78 20.7,8.61 27.52,17.55 6.87,8.98 10.3,19.85 10.3,32.59 0,16.19 -5.22,29.31 -15.71,39.42 -10.49,10.11 -24.98,15.15 -43.55,15.15 -12.14,0 -22.68,-2.31 -31.61,-6.92 -8.99,-4.56 -15.71,-11.15 -20.28,-19.61 -4.56,-8.52 -6.82,-18.25 -6.82,-29.16 0,-12.23 2.92,-22.39 8.8,-30.48 5.88,-8.09 13.88,-13.6 23.94,-16.56l4.23 16.37c-6.91,2.77 -12.23,6.82 -15.89,12.23 -3.72,5.41 -5.55,11.71 -5.55,19 0,10.58 3.76,19.33 11.28,26.2 7.53,6.87 18.35,10.3 32.37,10.3 14.06,0 24.69,-3.24 31.89,-9.74 7.19,-6.49 10.81,-14.86 10.81,-25.16 0,-8.28 -2.39,-15.57 -7.24,-21.83 -4.8,-6.25 -11.33,-10.39 -19.57,-12.41z"/>
  <path id="1" class="fil4" d="M18586.08 28081.5l-18.58 0c14.44,9.27 21.68,22.91 21.68,40.92 0,11.67 -3.19,22.39 -9.64,32.13 -6.4,9.78 -15.38,17.35 -26.86,22.76 -11.52,5.37 -24.74,8.05 -39.69,8.05 -14.59,0 -27.8,-2.45 -39.7,-7.29 -11.86,-4.9 -20.98,-12.19 -27.29,-21.92 -6.35,-9.69 -9.5,-20.61 -9.5,-32.6 0,-8.84 1.88,-16.7 5.6,-23.56 3.72,-6.87 8.61,-12.47 14.58,-16.8l-72.67 0 0 -24.83 202.07 0 0 23.14zm-73.05 78.46c18.72,0 32.69,-3.95 41.96,-11.9 9.26,-7.91 13.87,-17.27 13.87,-28.04 0,-10.86 -4.42,-20.08 -13.26,-27.7 -8.84,-7.57 -22.34,-11.38 -40.5,-11.38 -19.94,0 -34.62,3.85 -43.98,11.61 -9.36,7.72 -14.01,17.27 -14.01,28.6 0,11.06 4.46,20.27 13.45,27.71 8.98,7.38 23.14,11.1 42.47,11.1z"/>
  <path id="2" class="fil4" d="M18525.4 28028.96l-24.83 0 0 -76.76 24.83 0 0 76.76z"/>
  <path id="3" class="fil4" d="M18586.08 27925.1l-146.47 0 0 -22.29 20.69 0c-7.15,-4.56 -12.93,-10.68 -17.26,-18.3 -4.37,-7.62 -6.54,-16.27 -6.54,-26.01 0,-10.82 2.26,-19.71 6.73,-26.62 4.52,-6.92 10.77,-11.81 18.86,-14.63 -17.07,-11.67 -25.59,-26.77 -25.59,-45.39 0,-14.58 4,-25.83 12.04,-33.63 8.05,-7.86 20.42,-11.81 37.12,-11.81l100.42 0 0 24.84 -92.19 0c-9.88,0 -17.03,0.84 -21.4,2.44 -4.38,1.6 -7.86,4.52 -10.54,8.8 -2.68,4.23 -4,9.22 -4,14.91 0,10.35 3.44,18.91 10.26,25.73 6.86,6.82 17.82,10.2 32.87,10.2l85 0 0 24.84 -95.06 0c-11.01,0 -19.29,2.02 -24.79,6.07 -5.5,4.04 -8.28,10.67 -8.28,19.85 0,6.96 1.84,13.4 5.51,19.33 3.66,5.93 9.03,10.21 16.13,12.89 7.05,2.63 17.26,3.95 30.57,3.95l75.92 0 0 24.83z"/>
  <path id="4" class="fil4" d="M18567.74 27594.34c7.85,9.22 13.35,18.11 16.6,26.62 3.25,8.52 4.84,17.64 4.84,27.43 0,16.08 -3.9,28.45 -11.75,37.11 -7.81,8.65 -17.83,12.98 -30.01,12.98 -7.15,0 -13.69,-1.65 -19.62,-4.89 -5.93,-3.29 -10.63,-7.57 -14.2,-12.84 -3.58,-5.32 -6.31,-11.24 -8.14,-17.88 -1.27,-4.89 -2.49,-12.27 -3.72,-22.1 -2.35,-20.04 -5.22,-34.86 -8.51,-44.31 -3.39,-0.1 -5.55,-0.14 -6.44,-0.14 -10.07,0 -17.17,2.35 -21.31,7.05 -5.6,6.35 -8.37,15.81 -8.37,28.32 0,11.71 2.07,20.36 6.16,25.92 4.09,5.59 11.38,9.68 21.78,12.37l-3.39 24.27c-10.4,-2.21 -18.82,-5.84 -25.21,-10.92 -6.4,-5.08 -11.29,-12.41 -14.77,-22.01 -3.44,-9.55 -5.18,-20.7 -5.18,-33.3 0,-12.51 1.46,-22.72 4.42,-30.57 2.97,-7.81 6.64,-13.6 11.11,-17.27 4.46,-3.67 10.11,-6.25 16.93,-7.76 4.23,-0.8 11.85,-1.22 22.81,-1.22l32.93 0c23,0 37.53,-0.52 43.69,-1.55 6.17,-0.99 12.05,-3.06 17.69,-6.07l0 25.96c-5.22,2.5 -11.34,4.1 -18.34,4.8zm-55.04 1.98c3.67,9.03 6.78,22.57 9.32,40.64 1.45,10.25 3.1,17.49 4.93,21.73 1.84,4.23 4.52,7.48 8,9.78 3.53,2.31 7.43,3.48 11.76,3.48 6.54,0 12.04,-2.49 16.42,-7.52 4.37,-5.04 6.58,-12.38 6.58,-22.02 0,-9.55 -2.07,-18.06 -6.25,-25.54 -4.14,-7.43 -9.84,-12.93 -17.03,-16.41 -5.6,-2.69 -13.83,-4 -24.7,-4l-9.03 -0.14z"/>
  <path id="5" class="fil4" d="M18642.24 27533.05l-202.63 0 0 -22.57 19.24 0c-7.44,-5.32 -13.03,-11.34 -16.75,-18.07 -3.72,-6.68 -5.6,-14.81 -5.6,-24.36 0,-12.51 3.2,-23.52 9.65,-33.07 6.39,-9.55 15.47,-16.74 27.14,-21.63 11.71,-4.85 24.5,-7.3 38.47,-7.3 14.91,0 28.37,2.69 40.36,8.05 11.95,5.36 21.12,13.17 27.52,23.42 6.35,10.21 9.54,20.98 9.54,32.27 0,8.28 -1.74,15.71 -5.22,22.25 -3.48,6.58 -7.85,11.94 -13.17,16.18l71.45 0 0 24.83zm-128.5 -22.57c18.77,0 32.69,-3.81 41.67,-11.39 8.99,-7.62 13.45,-16.84 13.45,-27.65 0,-11.01 -4.65,-20.42 -13.97,-28.23 -9.31,-7.85 -23.7,-11.76 -43.22,-11.76 -18.63,0 -32.55,3.81 -41.82,11.48 -9.26,7.67 -13.87,16.79 -13.87,27.42 0,10.54 4.94,19.85 14.77,27.94 9.87,8.14 24.17,12.19 42.99,12.19z"/>
  <path id="6" class="fil4" d="M18542.34 27385.97l-3.96 -24.55c9.84,-1.37 17.36,-5.22 22.63,-11.53 5.22,-6.3 7.85,-15.14 7.85,-26.43 0,-11.43 -2.3,-19.9 -6.96,-25.45 -4.61,-5.5 -10.06,-8.28 -16.32,-8.28 -5.6,0 -10.02,2.5 -13.22,7.44 -2.21,3.48 -4.98,11.94 -8.42,25.4 -4.56,18.15 -8.51,30.71 -11.85,37.77 -3.39,7 -7.99,12.32 -13.92,15.94 -5.88,3.62 -12.42,5.46 -19.57,5.46 -6.54,0 -12.56,-1.51 -18.11,-4.47 -5.55,-3.01 -10.16,-7.06 -13.83,-12.18 -2.82,-3.86 -5.22,-9.13 -7.19,-15.76 -1.98,-6.68 -2.97,-13.78 -2.97,-21.4 0,-11.48 1.65,-21.54 4.99,-30.2 3.29,-8.7 7.81,-15.1 13.45,-19.24 5.69,-4.09 13.27,-6.96 22.77,-8.51l3.38 24.27c-7.62,1.08 -13.59,4.28 -17.87,9.55 -4.28,5.27 -6.4,12.7 -6.4,22.34 0,11.34 1.88,19.47 5.65,24.32 3.76,4.84 8.18,7.29 13.21,7.29 3.2,0 6.12,-0.99 8.71,-3.01 2.63,-2.02 4.84,-5.18 6.58,-9.5 0.94,-2.5 3.06,-9.74 6.35,-21.87 4.66,-17.5 8.52,-29.73 11.48,-36.69 2.96,-6.96 7.34,-12.42 12.98,-16.37 5.69,-4 12.75,-5.98 21.21,-5.98 8.24,0 16,2.4 23.29,7.25 7.29,4.84 12.93,11.8 16.93,20.88 4,9.13 5.97,19.43 5.97,30.91 0,19 -3.95,33.53 -11.8,43.5 -7.9,9.98 -19.57,16.33 -35.04,19.1z"/>
  <path id="7" class="fil4" d="M18586.08 27227.93l-28.22 0 0 -28.22 28.22 0 0 28.22z"/>
  <path id="8" class="fil4" d="M18532.46 27060.9l3.38 -24.27c16.7,2.68 29.73,9.45 39.19,20.41 9.45,10.96 14.15,24.46 14.15,40.41 0,19.99 -6.53,36.08 -19.61,48.21 -13.08,12.18 -31.8,18.25 -56.16,18.25 -15.81,0 -29.59,-2.63 -41.39,-7.85 -11.86,-5.22 -20.75,-13.17 -26.63,-23.9 -5.92,-10.68 -8.89,-22.29 -8.89,-34.9 0,-15.85 4,-28.88 12.04,-38.95 8.05,-10.11 19.48,-16.6 34.25,-19.42l3.67 23.99c-9.83,2.3 -17.22,6.35 -22.2,12.23 -4.94,5.83 -7.44,12.88 -7.44,21.16 0,12.51 4.47,22.67 13.41,30.53 8.98,7.81 23.09,11.71 42.47,11.71 19.66,0 33.92,-3.76 42.81,-11.29 8.89,-7.57 13.35,-17.4 13.35,-29.49 0,-9.78 -2.96,-17.92 -8.93,-24.41 -5.93,-6.54 -15.1,-10.68 -27.47,-12.42z"/>
  <path id="9" class="fil4" d="M18512.84 27024.78c-27.04,0 -47.08,-7.53 -60.11,-22.63 -10.82,-12.56 -16.23,-27.94 -16.23,-46.05 0,-20.08 6.59,-36.54 19.76,-49.34 13.12,-12.75 31.33,-19.14 54.51,-19.14 18.82,0 33.59,2.82 44.36,8.46 10.77,5.65 19.14,13.88 25.12,24.7 5.97,10.77 8.93,22.58 8.93,35.32 0,20.51 -6.53,37.07 -19.66,49.72 -13.12,12.65 -32.03,18.96 -56.68,18.96zm0.05 -25.4c18.72,0 32.74,-4.1 42,-12.28 9.32,-8.23 13.97,-18.53 13.97,-31 0,-12.32 -4.65,-22.57 -14.01,-30.81 -9.36,-8.18 -23.61,-12.27 -42.76,-12.27 -18.06,0 -31.75,4.14 -41.01,12.37 -9.32,8.23 -13.97,18.48 -13.97,30.71 0,12.47 4.61,22.77 13.87,31 9.27,8.18 23.24,12.28 41.91,12.28z"/>
  <path id="10" class="fil4" d="M18586.08 26858.5l-146.47 0 0 -22.29 20.69 0c-7.15,-4.56 -12.93,-10.68 -17.26,-18.3 -4.37,-7.62 -6.54,-16.27 -6.54,-26.01 0,-10.82 2.26,-19.71 6.73,-26.62 4.52,-6.92 10.77,-11.81 18.86,-14.63 -17.07,-11.67 -25.59,-26.77 -25.59,-45.39 0,-14.58 4,-25.83 12.04,-33.63 8.05,-7.86 20.42,-11.81 37.12,-11.81l100.42 0 0 24.84 -92.19 0c-9.88,0 -17.03,0.84 -21.4,2.44 -4.38,1.6 -7.86,4.52 -10.54,8.8 -2.68,4.23 -4,9.22 -4,14.91 0,10.35 3.44,18.91 10.26,25.73 6.86,6.82 17.82,10.2 32.87,10.2l85 0 0 24.84 -95.06 0c-11.01,0 -19.29,2.02 -24.79,6.07 -5.5,4.04 -8.28,10.67 -8.28,19.85 0,6.96 1.84,13.4 5.51,19.33 3.66,5.93 9.03,10.21 16.13,12.89 7.05,2.63 17.26,3.95 30.57,3.95l75.92 0 0 24.83z"/>
  <g id="_2507244687280">
   <path class="fil5 str2" d="M15283.27 27477.07l872.74 0 0 99.16 -872.74 0 0 -99.16z"/>
   <path class="fil6 str2" d="M16156.01 27477.07l872.74 0 0 99.16 -872.74 0 0 -99.16z"/>
   <path class="fil5 str2" d="M17028.75 27477.07l872.74 0 0 99.16 -872.74 0 0 -99.16z"/>
   <path class="fil5 str2" d="M16682.18 27776.01l1395.86 0 0 99.16 -1395.86 0 0 -99.16z"/>
   <path class="fil6 str2" d="M15286.33 27776.01l1395.86 0 0 99.16 -1395.86 0 0 -99.16z"/>
  </g>
  <rect class="fil7 str3" x="999.99" y="1000" width="17797.51" height="27699.99"/>
  <g id="_2507244680176">
   <path class="fil3 str1" d="M17626.54 1233.87l815.93 0 0 1592.89 -815.93 0 0 -1592.89z"/>
   <path class="fil8" d="M17974.64 1670c-0.92,3.32 -1.63,6.35 -2.07,9.15 -0.44,2.79 -0.65,5.18 -0.65,7.22 0,5.59 1.8,9.56 5.29,11.89 3.49,2.33 9.55,3.49 18.05,3.49l4.15 0 -4.96 22.72 -78.17 0 5.29 -22.72 2.89 0c7.36,0 12.82,-1.51 16.48,-4.54 3.6,-2.97 6.32,-8.39 8.12,-16.14l37.59 -153.79c0.6,-2.74 1.14,-5.54 1.52,-8.45 0.33,-2.91 0.55,-5.77 0.55,-8.62 0,-5.36 -1.96,-9.15 -5.95,-11.36 -3.92,-2.22 -10.69,-3.32 -20.23,-3.32l-3.06 0 5.29 -22.72 72.33 0 62.14 183.5 31.31 -129.03c1.08,-4.2 1.85,-7.63 2.34,-10.31 0.49,-2.68 0.71,-4.72 0.71,-6.06 0,-5.6 -1.8,-9.56 -5.35,-11.89 -3.6,-2.33 -9.71,-3.49 -18.32,-3.49l-4.15 0 4.96 -22.72 78.5 0 -5.62 22.72 -2.84 0c-7.37,0 -12.87,1.51 -16.47,4.54 -3.66,2.97 -6.33,8.33 -8.18,15.96l-50.68 208.44 -21.54 0 -72.06 -209.48 -37.21 155.01z"/>
   <path class="fil7 str4" d="M18035.33 2693.56l0 -769.27"/>
   <path class="fil7 str4" d="M17753.28 2417.51l563.14 0"/>
   <path class="fil7 str4" d="M17890.43 2557.5l294.22 -286.81"/>
   <path class="fil7 str4" d="M17887.29 2270.45l297.98 288.85"/>
   <path class="fil7 str4" d="M18035.19 1927.02l-95.47 118.01"/>
   <path class="fil7 str4" d="M18035.81 1926.98l87.89 118.05"/>
  </g>
  <g id="_2507244679504">
   <path class="fil3 str1" d="M16860.34 1233.87l0 473.7 -2309.37 0 0 -473.7 2309.37 0z"/>
   <path class="fil8" d="M15628.31 1572.34l0 -202.07 40.07 0 47.79 143.04c4.42,13.31 7.62,23.28 9.64,29.91 2.31,-7.33 5.93,-18.15 10.82,-32.4l48.64 -140.55 35.79 0 0 202.07 -25.68 0 0 -169.05 -58.98 169.05 -24.09 0 -58.32 -172.15 0 172.15 -25.68 0z"/>
   <path id="1" class="fil8" d="M15960.76 1524.93l25.68 3.38c-3.99,14.91 -11.47,26.53 -22.39,34.76 -10.91,8.24 -24.83,12.37 -41.81,12.37 -21.36,0 -38.29,-6.58 -50.8,-19.75 -12.51,-13.12 -18.77,-31.61 -18.77,-55.36 0,-24.56 6.31,-43.65 18.96,-57.2 12.65,-13.59 29.07,-20.37 49.25,-20.37 19.52,0 35.46,6.64 47.83,19.95 12.37,13.31 18.58,32.03 18.58,56.16 0,1.46 -0.05,3.67 -0.14,6.58l-109.08 0c0.94,16.04 5.46,28.37 13.64,36.88 8.14,8.51 18.35,12.79 30.53,12.79 9.08,0 16.84,-2.39 23.24,-7.19 6.44,-4.8 11.52,-12.47 15.28,-23zm-81.28 -39.8l81.56 0c-1.08,-12.32 -4.23,-21.54 -9.36,-27.7 -7.85,-9.55 -18.1,-14.35 -30.66,-14.35 -11.39,0 -20.93,3.81 -28.7,11.43 -7.71,7.62 -11.99,17.83 -12.84,30.62z"/>
   <path id="2" class="fil8" d="M16017.53 1572.34l0 -146.47 22.3 0 0 22.43c5.69,-10.39 10.96,-17.26 15.8,-20.55 4.85,-3.34 10.16,-4.99 15.95,-4.99 8.37,0 16.89,2.64 25.54,7.86l-8.84 22.91c-6.02,-3.39 -12.04,-5.08 -18.06,-5.08 -5.41,0 -10.26,1.64 -14.54,4.89 -4.28,3.24 -7.34,7.76 -9.17,13.54 -2.78,8.8 -4.14,18.44 -4.14,28.93l0 76.53 -24.84 0z"/>
   <path id="3" class="fil8" d="M16207.47 1518.72l24.27 3.38c-2.68,16.7 -9.45,29.73 -20.41,39.19 -10.96,9.45 -24.46,14.15 -40.41,14.15 -19.99,0 -36.08,-6.53 -48.21,-19.61 -12.18,-13.08 -18.25,-31.8 -18.25,-56.16 0,-15.81 2.63,-29.59 7.85,-41.44 5.22,-11.81 13.17,-20.7 23.9,-26.58 10.68,-5.92 22.29,-8.89 34.9,-8.89 15.85,0 28.88,4 38.95,12.04 10.11,8.05 16.6,19.48 19.42,34.25l-23.99 3.67c-2.3,-9.83 -6.35,-17.22 -12.23,-22.2 -5.83,-4.94 -12.88,-7.44 -21.16,-7.44 -12.51,0 -22.67,4.47 -30.53,13.41 -7.81,8.98 -11.71,23.09 -11.71,42.47 0,19.66 3.76,33.92 11.29,42.81 7.57,8.89 17.4,13.35 29.49,13.35 9.78,0 17.92,-2.96 24.41,-8.93 6.54,-5.93 10.68,-15.1 12.42,-27.47z"/>
   <path id="4" class="fil8" d="M16348.58 1554c-9.22,7.85 -18.11,13.35 -26.62,16.6 -8.52,3.25 -17.64,4.84 -27.43,4.84 -16.08,0 -28.45,-3.9 -37.11,-11.75 -8.65,-7.81 -12.98,-17.83 -12.98,-30.01 0,-7.15 1.65,-13.69 4.89,-19.62 3.29,-5.93 7.57,-10.63 12.84,-14.2 5.32,-3.58 11.24,-6.31 17.88,-8.14 4.89,-1.27 12.27,-2.49 22.1,-3.72 20.04,-2.35 34.86,-5.22 44.31,-8.51 0.1,-3.39 0.14,-5.55 0.14,-6.44 0,-10.07 -2.35,-17.17 -7.05,-21.31 -6.35,-5.6 -15.81,-8.37 -28.32,-8.37 -11.71,0 -20.36,2.07 -25.92,6.16 -5.59,4.09 -9.68,11.33 -12.37,21.78l-24.27 -3.39c2.21,-10.4 5.84,-18.82 10.92,-25.21 5.08,-6.4 12.41,-11.29 22.01,-14.77 9.55,-3.44 20.7,-5.18 33.3,-5.18 12.51,0 22.72,1.46 30.57,4.42 7.81,2.97 13.6,6.64 17.27,11.11 3.67,4.46 6.25,10.11 7.76,16.93 0.8,4.23 1.22,11.85 1.22,22.81l0 32.93c0,23 0.52,37.53 1.55,43.69 0.99,6.17 3.06,12.05 6.07,17.69l-25.96 0c-2.5,-5.22 -4.1,-11.34 -4.8,-18.34zm-1.98 -55.04c-9.03,3.67 -22.57,6.78 -40.64,9.32 -10.25,1.45 -17.49,3.1 -21.73,4.93 -4.23,1.84 -7.48,4.52 -9.78,8 -2.31,3.53 -3.48,7.43 -3.48,11.76 0,6.54 2.49,12.04 7.52,16.42 5.04,4.37 12.38,6.58 22.02,6.58 9.55,0 18.06,-2.07 25.54,-6.25 7.43,-4.14 12.93,-9.84 16.41,-17.03 2.69,-5.6 4,-13.83 4,-24.7l0.14 -9.03z"/>
   <path id="5" class="fil8" d="M16463.77 1550.19l3.39 21.91c-6.96,1.46 -13.22,2.22 -18.68,2.22 -8.98,0 -15.94,-1.42 -20.93,-4.28 -4.94,-2.87 -8.42,-6.59 -10.44,-11.25 -2.02,-4.65 -3.01,-14.44 -3.01,-29.35l0 -84.38 -18.34 0 0 -19.19 18.34 0 0 -36.22 24.84 -14.91 0 51.13 24.83 0 0 19.19 -24.83 0 0 85.79c0,7.11 0.42,11.67 1.31,13.69 0.85,2.02 2.26,3.62 4.24,4.85 1.97,1.17 4.79,1.78 8.46,1.78 2.73,0 6.35,-0.33 10.82,-0.98z"/>
   <path id="6" class="fil8" d="M16478.96 1499.1c0,-27.04 7.53,-47.08 22.63,-60.11 12.56,-10.82 27.94,-16.23 46.05,-16.23 20.08,0 36.54,6.59 49.34,19.76 12.75,13.12 19.14,31.33 19.14,54.51 0,18.82 -2.82,33.59 -8.46,44.36 -5.65,10.77 -13.88,19.14 -24.7,25.12 -10.77,5.97 -22.58,8.93 -35.32,8.93 -20.51,0 -37.07,-6.53 -49.72,-19.66 -12.65,-13.12 -18.96,-32.03 -18.96,-56.68zm25.4 0.05c0,18.72 4.1,32.74 12.28,42 8.23,9.32 18.53,13.97 31,13.97 12.32,0 22.57,-4.65 30.81,-14.01 8.18,-9.36 12.27,-23.61 12.27,-42.76 0,-18.06 -4.14,-31.75 -12.37,-41.01 -8.23,-9.32 -18.48,-13.97 -30.71,-13.97 -12.47,0 -22.77,4.61 -31,13.87 -8.18,9.27 -12.28,23.24 -12.28,41.91z"/>
   <path id="7" class="fil8" d="M16644.95 1572.34l0 -146.47 22.3 0 0 22.43c5.69,-10.39 10.96,-17.26 15.8,-20.55 4.85,-3.34 10.16,-4.99 15.95,-4.99 8.37,0 16.89,2.64 25.54,7.86l-8.84 22.91c-6.02,-3.39 -12.04,-5.08 -18.06,-5.08 -5.41,0 -10.26,1.64 -14.54,4.89 -4.28,3.24 -7.34,7.76 -9.17,13.54 -2.78,8.8 -4.14,18.44 -4.14,28.93l0 76.53 -24.84 0z"/>
   <circle class="fil9 str5" cx="14769.34" cy="1467.02" r="118.79"/>
   <rect class="fil9 str5" x="15227.27" y="1358.74" width="226.91" height="226.91"/>
   <path class="fil7 str6" d="M14943.24 1466.15l220.31 0"/>
   <path class="fil7 str6" d="M15160.89 1466.81l-64.02 65.38"/>
   <path class="fil7 str6" d="M15161.06 1465.67l-63.42 -61.39"/>
  </g>
 </g>
</svg>
