<svg xmlns="http://www.w3.org/2000/svg" viewBox="0 0 100 100">
    <path fill="rgba(0,0,0,0.4)" d="M -76.6553 -38.8958 L -76.6198 -38.8978 L -76.6237 -38.9092 L -76.6045 -38.9144 L -76.6337 -38.9855 L -76.6481 -38.9830 L -76.6574 -39.0073 L -76.6593 -39.0156 L -76.6450 -39.0211 L -76.6381 -39.0309 L -76.6310 -39.0354 L -76.6036 -39.0368 L -76.5724 -39.0244 L -76.5345 -39.0482 L -76.5307 -39.0521 L -76.5354 -39.0613 L -76.4766 -39.1047 L -76.4586 -39.1070 L -76.4068 -39.0852 L -76.3861 -39.0810 L -76.3983 -39.1270 L -76.4143 -39.1451 L -76.4368 -39.2368 L -76.4496 -39.2552 L -76.4656 -39.2966 L -76.4802 -39.3051 L -76.5012 -39.3432 L -76.5071 -39.3603 L -76.4979 -39.3890 L -76.5070 -39.4068 L -76.5522 -39.4442 L -76.5609 -39.4647 L -76.5729 -39.4747 L -76.5991 -39.4646 L -76.6345 -39.4360 L -76.6498 -39.4301 L -76.6561 -39.4324 L -76.7234 -39.4012 L -76.7048 -39.3408 L -76.7991 -39.3217 L -76.8406 -39.2968 L -76.8897 -39.2801 L -76.9136 -39.2662 L -76.9374 -39.2365 L -76.9701 -39.2177 L -76.9837 -39.1892 L -77.0179 -39.1502 L -77.0264 -39.1276 L -77.0414 -39.1092 L -77.0993 -39.0997 L -77.1575 -39.0779 L -77.2445 -39.0587 L -77.2523 -39.0473 L -77.2701 -39.0399 L -77.2714 -39.0119 L -77.2943 -38.9725 L -77.3051 -38.9655 L -77.3282 -38.9756 L -77.3679 -38.9808 L -77.3790 -38.9890 L -77.6673 -39.4098 L -77.6997 -39.3345 L -77.7177 -39.3359 L -77.7427 -39.3138 L -77.7672 -39.3284 L -77.7843 -39.3188 L -77.7962 -39.3221 L -77.8110 -39.3170 L -77.8224 -39.3104 L -77.8312 -39.2766 L -77.8347 -39.2793 L -77.8288 -39.2931 L -77.8293 -39.3073 L -77.8534 -39.3204 L -77.8595 -39.3305 L -77.8677 -39.3266 L -77.8692 -39.3340 L -77.8876 -39.3511 L -77.8918 -39.3664 L -77.9263 -39.3822 L -77.9352 -39.3530 L -77.9298 -39.3326 L -77.9656 -39.3121 L -77.9610 -39.2904 L -77.9531 -39.2805 L -77.9535 -39.2616 L -77.9837 -39.2534 L -77.9947 -39.2251 L -77.9898 -39.2096 L -77.9960 -39.1911 L -77.9865 -39.1811 L -77.9961 -39.1597 L -77.9841 -39.1472 L -77.9808 -39.1313 L -78.0076 -39.1127 L -78.0030 -39.0959 L -77.9972 -39.0909 L -78.0021 -39.0789 L -77.9979 -39.0706 L -78.0069 -39.0362 L -78.0279 -39.0205 L -78.0124 -39.0046 L -78.0135 -38.9903 L -77.9887 -38.9912 L -77.9622 -38.9831 L -77.9471 -38.9639 L -77.9469 -38.9288 L -77.9536 -38.9129 L -77.9463 -38.9060 L -77.9456 -38.8949 L -77.9325 -38.8907 L -77.9229 -38.8797 L -77.9311 -38.8615 L -77.9258 -38.8470 L -77.9140 -38.8366 L -77.9113 -38.8188 L -77.9274 -38.7968 L -77.9728 -38.7804 L -77.9857 -38.7632 L -77.9809 -38.7365 L -77.9971 -38.7218 L -78.0111 -38.7178 L -78.0209 -38.6950 L -78.0363 -38.6874 L -78.0462 -38.6920 L -78.0424 -38.6803 L -78.0475 -38.6542 L -78.0522 -38.6445 L -78.0681 -38.6336 L -78.0762 -38.5983 L -78.0877 -38.5934 L -78.0824 -38.5290 L -78.0905 -38.4995 L -78.0868 -38.4926 L -78.0935 -38.4830 L -78.0924 -38.4719 L -78.1154 -38.4525 L -78.1077 -38.4433 L -78.1054 -38.4210 L -78.0914 -38.3988 L -78.0642 -38.3926 L -78.0641 -38.3892 L -78.0475 -38.4099 L -78.0369 -38.4113 L -78.0252 -38.4262 L -78.0238 -38.4528 L -77.9997 -38.4577 L -77.9745 -38.4302 L -77.9684 -38.4014 L -77.9524 -38.3953 L -77.9523 -38.3703 L -77.9283 -38.3286 L -77.9042 -38.3329 L -77.8839 -38.3517 L -77.8660 -38.3451 L -77.8590 -38.3491 L -77.8463 -38.3459 L -77.8192 -38.3624 L -77.8131 -38.3725 L -77.7710 -38.3725 L -77.7536 -38.3844 L -77.7315 -38.3740 L -77.7353 -38.3649 L -77.7250 -38.3494 L -77.6908 -38.3530 L -77.6686 -38.3324 L -77.6625 -38.3121 L -77.6522 -38.3037 L -77.6365 -38.3033 L -77.6153 -38.2864 L -77.5952 -38.2865 L -77.5928 -38.2591 L -77.5833 -38.2356 L -77.5885 -38.2168 L -77.5793 -38.2125 L -77.5777 -38.1991 L -77.5802 -38.1866 L -77.5943 -38.1641 L -77.6014 -38.1638 L -77.6266 -38.1469 L -77.6194 -38.1099 L -77.6218 -38.0682 L -77.6136 -38.0462 L -77.5739 -38.0368 L -77.5613 -38.0143 L -77.5526 -38.0099 L -77.5349 -37.9867 L -77.5128 -37.9749 L -77.5124 -37.9605 L -77.5069 -37.9474 L -77.4988 -37.9450 L -77.4934 -37.9176 L -77.4818 -37.9101 L -77.4894 -37.8987 L -77.4848 -37.8747 L -77.4743 -37.8535 L -77.4787 -37.8353 L -77.4744 -37.8211 L -77.4629 -37.8100 L -77.4550 -37.8128 L -77.4347 -37.8031 L -77.4312 -37.8172 L -77.4017 -37.8183 L -77.3755 -37.7978 L -77.3732 -37.7826 L -77.3416 -37.7781 L -77.3351 -37.7521 L -77.3167 -37.7312 L -77.2935 -37.7334 L -77.2732 -37.7205 L -77.2635 -37.7289 L -77.2450 -37.7340 L -77.2370 -37.7180 L -77.2319 -37.7174 L -77.1944 -37.7417 L -77.1602 -37.7528 L -77.1447 -37.7308 L -77.1186 -37.7250 L -77.1081 -37.7061 L -77.1026 -37.6766 L -77.0826 -37.6543 L -77.0528 -37.6432 L -77.0453 -37.6454 L -77.0153 -37.6323 L -76.9534 -37.6324 L -76.9504 -37.6368 L -76.9400 -37.6364 L -76.9401 -37.6592 L -76.9246 -37.6730 L -76.9147 -37.6745 L -76.9055 -37.6908 L -76.9065 -37.7019 L -76.8894 -37.7134 L -76.8822 -37.7308 L -76.8410 -37.7578 L -76.8234 -37.7861 L -76.8083 -37.7880 L -76.7623 -37.7761 L -76.7187 -37.7837 L -76.7187 -38.0777 L -76.4383 -38.0764 L -76.2690 -37.9783 L -76.2578 -38.0085 L -76.2611 -38.0302 L -76.2540 -38.0684 L -76.2562 -38.0768 L -76.2779 -38.1206 L -76.3376 -38.1363 L -76.3844 -38.2031 L -76.4456 -38.4202 L -76.4458 -38.4464 L -76.4303 -38.4945 L -76.4318 -38.5222 L -76.4704 -38.6165 L -76.4424 -38.6082 L -76.4711 -38.6855 L -76.4559 -38.7210 L -76.5381 -38.7585 L -76.5839 -38.7678 L -76.6095 -38.7834 L -76.6063 -38.7762 L -76.6228 -38.7737 L -76.6230 -38.7678 L -76.7629 -38.7695 L -76.7628 -38.8978 L -76.7009 -38.8936 L -76.6665 -38.8997 L -76.6553 -38.8958 L -77.9797 -38.7021" stroke="rgb(230,230,230)" opacity="1" stroke-linejoin="round" stroke-linecap="round" filter="none" class="highcharts-point highcharts-color-0 highcharts-name-precordillera-&lt;br&gt;y-alta-montaña highcharts-key-precordillera y alta montana" id="highcharts-zyes5fm-16"></path>
</svg>
